<svg id="Layer_1" xmlns="http://www.w3.org/2000/svg" version="1.1" viewBox="0 0 30 30">
  <!-- Generator: Adobe Illustrator 29.5.1, SVG Export Plug-In . SVG Version: 2.1.0 Build 141)  -->
  <path d="M4.38,12.54c0-1.44.28-2.82.84-4.14s1.32-2.44,2.28-3.38,2.09-1.7,3.4-2.26,2.69-.84,4.12-.84,2.82.28,4.14.84c1.31.57,2.44,1.32,3.38,2.26.94.94,1.7,2.08,2.26,3.38s.84,2.69.84,4.14c0,2.35-.7,4.44-2.09,6.3-1.39,1.84-3.19,3.11-5.38,3.79v4.78h-6.15v-4.72c-2.24-.65-4.08-1.92-5.5-3.79s-2.13-3.99-2.13-6.36ZM6.72,12.54c0,2.25.81,4.18,2.45,5.79,1.61,1.63,3.56,2.44,5.83,2.44,1.49,0,2.89-.36,4.15-1.1,1.28-.74,2.28-1.74,3.03-3,.74-1.26,1.12-2.64,1.12-4.14,0-1.12-.22-2.18-.65-3.21s-1.03-1.9-1.77-2.64c-.74-.74-1.63-1.34-2.66-1.77s-2.09-.65-3.21-.65-2.18.22-3.21.65c-1.03.44-1.9,1.03-2.64,1.77s-1.34,1.63-1.77,2.64c-.46,1.05-.68,2.1-.68,3.22ZM7.56,13.06v-1.05h3.15v1.05h-3.15ZM9.14,7.93l.75-.75,2.21,2.21-.75.77-2.21-2.22ZM12.82,15.08c0-.61.22-1.13.64-1.58s.94-.68,1.54-.7l3.96-6.52.96.51-2.93,7.01c.26.36.38.78.38,1.28,0,.64-.22,1.18-.67,1.61-.45.44-.99.65-1.63.65s-1.16-.22-1.6-.65-.65-.97-.65-1.61ZM14.72,8.3v-3.14h1v3.15h-1ZM18.98,13.05v-1.07h3.15v1.07h-3.15Z"/>
</svg>