<?xml version="1.0" encoding="UTF-8"?>
<svg version="1.1" xmlns="http://www.w3.org/2000/svg" width="512" height="512">
<path d="M0 0 C0.72960937 0.04382813 1.45921875 0.08765625 2.2109375 0.1328125 C8.7778405 2.15176326 12.41375795 7.98454659 16 13.4375 C16.53181885 14.23051514 17.0636377 15.02353027 17.61157227 15.84057617 C18.86868725 17.71845059 20.12131016 19.59933621 21.37060547 21.48242188 C23.50513045 24.69958604 25.65566035 27.90587155 27.80751038 31.11146545 C50.3036719 64.62559795 72.148425 98.49833977 91.625 133.875 C92.19847168 134.91366211 92.77194336 135.95232422 93.36279297 137.02246094 C109.34961913 166.06483163 125.24343398 196.31299268 132.625 228.875 C132.80683838 229.61194092 132.98867676 230.34888184 133.17602539 231.1081543 C140.16234207 261.70853118 131.64425461 296.20001338 115.57080078 322.60693359 C95.7598716 353.91454845 65.30468794 376.45554989 29.12890625 384.91015625 C-6.73020175 392.76730873 -43.56996323 386.65105181 -74.98828125 367.765625 C-77.8713587 365.89592497 -80.63524329 363.94821888 -83.375 361.875 C-84.27992187 361.19050781 -85.18484375 360.50601562 -86.1171875 359.80078125 C-115.2652288 336.80438039 -133.97294254 304.22128552 -138.7109375 267.25390625 C-142.74423122 229.70067152 -127.11000112 195.6781421 -110.80810547 162.77197266 C-109.47482653 160.07679583 -108.15878967 157.37396923 -106.84765625 154.66796875 C-93.47496315 127.2532732 -77.43797938 101.11144978 -61.01171875 75.4375 C-59.17812466 72.56676558 -57.35467697 69.68970232 -55.53125 66.8125 C-47.93966742 54.85847426 -40.21356001 43.02758457 -32.12451172 31.40429688 C-30.14048179 28.53595329 -28.18150618 25.65121853 -26.22265625 22.765625 C-24.79458115 20.67687114 -23.36619983 18.5883266 -21.9375 16.5 C-21.27492188 15.51821777 -20.61234375 14.53643555 -19.9296875 13.52490234 C-12.27065062 2.39560712 -12.27065062 2.39560712 -6.2734375 0.0546875 C-4.1303851 -0.14815285 -2.14789382 -0.1733388 0 0 Z " fill="#000000" transform="translate(205.375,68.125)"/>
<path d="M0 0 C15.92501986 12.57263724 24.57389161 29.78092663 27.33154297 49.76855469 C29.00860548 67.75677317 23.40678861 85.98619845 11.94091797 99.97949219 C11.40982422 100.56988281 10.87873047 101.16027344 10.33154297 101.76855469 C9.67669922 102.50332031 9.02185547 103.23808594 8.34716797 103.99511719 C-3.22428184 116.26413666 -19.1512836 124.48778845 -36.15673828 125.06933594 C-56.58723143 125.27782809 -74.51087241 121.5797192 -89.63964844 106.97314453 C-103.66411506 92.83225203 -111.15515172 76.21405423 -111.91845703 56.26855469 C-111.62423927 37.08555672 -104.45352852 20.28358025 -91.35986328 6.30371094 C-66.73072617 -17.35481979 -27.52552833 -20.31588599 0 0 Z M-65.19970703 36.86621094 C-71.08173194 44.48468469 -72.48740698 52.31025953 -71.66845703 61.76855469 C-69.55505624 70.31877048 -65.03338646 76.72218482 -57.73095703 81.58105469 C-50.45996749 85.767382 -43.0834074 87.05856426 -34.93017578 85.11621094 C-25.25806207 81.99919504 -19.27574282 76.84618824 -14.57861328 67.88183594 C-11.3858008 60.46848164 -11.5585907 51.8115678 -14.41845703 44.33105469 C-18.20962112 36.10593398 -23.96078214 31.5746691 -32.00439453 27.62011719 C-44.44662728 23.64298121 -56.5179146 27.50871297 -65.19970703 36.86621094 Z " fill="#000000" transform="translate(418.66845703125,69.2314453125)"/>
</svg>
