<?xml version="1.0" encoding="UTF-8"?>
<svg id="Layer_1" xmlns="http://www.w3.org/2000/svg" version="1.1" viewBox="0 0 30 30">
  <!-- Generator: Adobe Illustrator 29.5.1, SVG Export Plug-In . SVG Version: 2.1.0 Build 141)  -->
  <path d="M11.81,3.2s.09,0,.14,0c.41.13.64.49.87.84.03.05.07.1.1.15.08.12.16.24.24.35.13.2.27.4.4.6,1.41,2.1,2.78,4.23,4.01,6.45.04.07.07.13.11.2,1,1.82,2,3.72,2.47,5.77.01.05.02.09.03.14.44,1.92-.1,4.09-1.11,5.75-1.24,1.97-3.16,3.38-5.43,3.91-2.25.49-4.57.11-6.54-1.08-.18-.12-.35-.24-.53-.37-.06-.04-.11-.09-.17-.13-1.83-1.44-3.01-3.49-3.3-5.81-.25-2.36.73-4.49,1.75-6.56.08-.17.17-.34.25-.51.84-1.72,1.85-3.36,2.88-4.98.12-.18.23-.36.34-.54.48-.75.96-1.49,1.47-2.22.12-.18.25-.36.37-.54.09-.13.18-.26.27-.39.04-.06.08-.12.13-.19q.48-.7.86-.85c.13-.01.26-.01.39,0Z"/>
  <path d="M25.21,3.27c1,.79,1.54,1.87,1.72,3.13.11,1.13-.25,2.27-.97,3.15-.03.04-.07.07-.1.11-.04.05-.08.09-.12.14-.73.77-1.73,1.29-2.79,1.32-1.28.01-2.41-.22-3.36-1.14-.88-.89-1.35-1.93-1.4-3.18.02-1.2.47-2.26,1.29-3.14,1.55-1.49,4.01-1.67,5.74-.4ZM21.11,5.58c-.37.48-.46.97-.41,1.56.13.54.42.94.88,1.24.46.26.92.34,1.43.22.61-.2.98-.52,1.28-1.08.2-.47.19-1.01.01-1.48-.24-.52-.6-.8-1.1-1.05-.78-.25-1.54,0-2.08.58Z"/>
</svg>