<svg xmlns="http://www.w3.org/2000/svg" id="Layer_1" version="1.1" viewBox="4.57 1.55 20.86 26.9">
  <!-- Generator: Adobe Illustrator 29.5.1, SVG Export Plug-In . SVG Version: 2.1.0 Build 141)  -->
  <path d="M4.57,18.05c0-1.24.34-2.66,1.01-4.26.68-1.6,1.55-3.17,2.62-4.66,2.19-2.9,4.11-5.09,5.71-6.57l1.06-1.01c.35.37.75.7,1.17,1.01.58.59,1.46,1.56,2.65,2.94,1.18,1.38,2.21,2.6,3.05,3.73,1,1.42,1.86,2.95,2.55,4.57s1.04,3.04,1.04,4.26c0,1.41-.27,2.74-.82,4.02s-1.28,2.39-2.21,3.32-2.04,1.67-3.33,2.22-2.66.83-4.09.83-2.74-.27-4.02-.8-2.39-1.25-3.32-2.18c-.93-.91-1.67-2.03-2.22-3.31s-.83-2.66-.83-4.12ZM7.75,13.92c0,1.17.24,2.1.73,2.8.49.69,1.24,1.04,2.24,1.04s1.76-.35,2.27-1.04c.49-.69.75-1.62.76-2.8-.01-1.18-.27-2.11-.76-2.81-.49-.69-1.25-1.04-2.27-1.04s-1.74.35-2.24,1.04c-.49.7-.73,1.63-.73,2.81ZM9.96,13.92v-.49c0-.11.01-.27.03-.46s.03-.35.07-.45.07-.23.13-.34.13-.21.21-.25c.1-.06.2-.08.32-.08.2,0,.35.06.46.17s.2.3.24.53c.04.25.07.45.08.63s.01.42.01.73,0,.56-.01.73c-.01.17-.04.38-.08.63-.04.24-.13.42-.24.53s-.27.17-.46.17c-.13,0-.23-.03-.32-.08s-.17-.14-.21-.25c-.06-.11-.1-.24-.13-.34-.03-.11-.06-.27-.07-.45-.01-.2-.03-.35-.03-.45v-.48ZM10.79,24.83h1.86l7.02-15.11h-1.9l-6.98,15.11ZM16.84,20.62c.01,1.18.28,2.11.77,2.81.49.69,1.25,1.04,2.25,1.04s1.76-.35,2.25-1.04.73-1.63.75-2.81c-.01-1.18-.25-2.11-.75-2.8s-1.24-1.04-2.25-1.04-1.76.35-2.25,1.04c-.51.69-.76,1.62-.77,2.8ZM19.05,20.62c0-.32,0-.56.01-.73s.04-.38.08-.63.13-.42.24-.53.27-.17.46-.17c.13,0,.24.03.34.08.1.06.17.14.23.27.06.13.1.24.14.34s.06.25.07.45v.45s.01.48.01.48v.94s-.08.45-.08.45l-.14.34-.23.27-.34.08c-.2,0-.35-.06-.46-.17s-.2-.3-.24-.53c-.04-.25-.07-.46-.08-.63s-.01-.42-.01-.75Z"/>
</svg>