<?xml version="1.0" encoding="UTF-8"?>
<svg version="1.1" xmlns="http://www.w3.org/2000/svg" width="512" height="512">
<path d="M0 0 C1.16789062 0.75216797 1.16789062 0.75216797 2.359375 1.51953125 C14.2486579 9.9445231 22.54375358 23.87764925 25.58555603 38.03894043 C26.53129737 44.7959369 26.2166337 51.68530448 26.16015625 58.49414062 C26.1530752 60.26409031 26.14702474 62.03404436 26.141922 63.80400085 C26.12974225 67.60168756 26.11219687 71.39929838 26.09100342 75.19694519 C26.05941378 81.20703514 26.05166061 87.21700865 26.04931641 93.22717285 C26.04854599 94.7517603 26.04854599 94.7517603 26.04776001 96.3071475 C26.04671867 98.38463591 26.0457144 100.46212433 26.0447464 102.53961277 C26.03686059 116.52124901 26.01152149 130.50248109 25.92822266 144.48388672 C25.87212364 153.93084517 25.85150798 163.37715825 25.87142277 172.82427168 C25.88049461 177.81778371 25.87138741 182.80978187 25.81863403 187.80305481 C25.76923964 192.49875256 25.76654625 197.1921875 25.79910851 201.88801003 C25.80277084 203.6065006 25.78944772 205.32512819 25.75748634 207.04332542 C25.42030415 216.5424594 25.42030415 216.5424594 29.21255493 224.97245789 C31.70314451 227.2221259 34.23372959 229.10908531 37 231 C54.5051786 250.55857199 62.36729519 275.99230009 61 302 C59.0531514 326.07511368 48.49771513 348.70023025 30.8984375 365.390625 C26.79300873 368.87094733 22.44566077 371.97224496 18 375 C17.21882812 375.53753906 16.43765625 376.07507813 15.6328125 376.62890625 C-4.9067483 389.87242778 -31.11509065 393.2191731 -54.8125 388.4375 C-73.77290003 384.18697626 -89.28643131 374.58846245 -103 361 C-103.81726563 360.195625 -104.63453125 359.39125 -105.4765625 358.5625 C-123.70355927 339.52123877 -129.48377145 314.60270884 -129.21484375 289.04296875 C-128.69325335 268.16315411 -120.08553523 247.41845202 -106 232 C-105.15685966 231.32213062 -104.31371931 230.64426125 -103.44502926 229.94585037 C-98.62672788 225.9674418 -95.53803506 222.70748402 -94.87939084 216.29046297 C-94.69942207 212.46700305 -94.74346709 208.66451041 -94.82055664 204.83886719 C-94.81842292 203.11627644 -94.81184118 201.39368638 -94.80117798 199.67112732 C-94.78445568 195.01507038 -94.82850442 190.36134614 -94.88292623 185.70565319 C-94.92870455 180.81550046 -94.91515887 175.9255259 -94.90733337 171.03521729 C-94.90089746 161.76932081 -94.94264718 152.50434758 -95.00405258 143.23867631 C-95.1121072 126.66910074 -95.13396775 110.09925586 -95.14459509 93.52936864 C-95.15016285 87.72417112 -95.17522909 81.9194858 -95.21732819 76.11444139 C-95.24134088 72.48751833 -95.2532886 68.86061628 -95.26279068 65.23362923 C-95.26990091 63.56563485 -95.282206 61.89765225 -95.30040932 60.22974205 C-95.5234563 39.30917609 -91.26573672 22.13196308 -76.8125 6.3125 C-55.79586428 -13.55777377 -23.8787703 -15.5061826 0 0 Z M-61.45703125 32.6796875 C-65.34868614 38.53194827 -66.44388065 44.27528975 -66.33143616 51.1905365 C-66.33102733 51.97506386 -66.33061849 52.75959122 -66.33019727 53.56789213 C-66.32546413 56.17565007 -66.29947788 58.78275302 -66.27368164 61.39038086 C-66.26632082 63.26855471 -66.26042864 65.14673481 -66.25588989 67.0249176 C-66.24392348 71.05948078 -66.22340325 75.09387802 -66.19673347 79.12837029 C-66.15641296 85.51224214 -66.14644989 91.89593728 -66.14268494 98.27992249 C-66.12846311 116.42991589 -66.09346187 134.57956004 -65.9831543 152.72924805 C-65.92243511 162.76104277 -65.89735503 172.79226329 -65.9120931 182.82423884 C-65.9183109 188.12852075 -65.90590252 193.43132161 -65.8491993 198.7353344 C-65.79592161 203.72395515 -65.78909126 208.71049642 -65.81740189 213.69930077 C-65.81947397 215.5258442 -65.80451986 217.35250165 -65.7709446 219.17873764 C-65.53170137 232.94601085 -65.53170137 232.94601085 -69.15801811 238.01883125 C-71.66331604 240.30685617 -74.15614514 242.15970152 -77 244 C-90.8543408 255.06577089 -98.67389387 270.45728293 -101 288 C-102.46815947 306.29082004 -97.16192309 322.87267923 -86.1875 337.4375 C-74.10000684 351.42613287 -57.46266624 360.29049387 -39 362 C-21.35375201 363.1203967 -4.35475798 357.07825864 9.12109375 345.69921875 C9.74113281 345.13847656 10.36117187 344.57773437 11 344 C11.60972656 343.47019531 12.21945313 342.94039063 12.84765625 342.39453125 C23.96387716 332.108973 31.58766598 316.10217724 32.37109375 300.96875 C32.85947078 279.15656129 27.08181884 262.56924033 11.82730103 246.60815525 C9.9542015 244.86540276 9.9542015 244.86540276 7.31991577 243.37035275 C2.51861578 240.23661139 -0.51215648 237.8487597 -2.0092926 232.17512703 C-2.51685121 227.35337 -2.39339001 222.53543932 -2.29296875 217.69555664 C-2.29481912 215.83854609 -2.30155644 213.98153499 -2.31278992 212.1245575 C-2.32982133 207.09876407 -2.27984221 202.0756051 -2.21846771 197.05024266 C-2.16649745 191.78052496 -2.17938762 186.51098547 -2.18603516 181.24107361 C-2.1893689 171.25845253 -2.13938568 161.27689296 -2.06796646 151.29455417 C-1.94228985 133.42699281 -1.9160595 115.55905991 -1.89607525 97.69111341 C-1.88707545 91.42567369 -1.85774329 85.16075053 -1.8107996 78.89548314 C-1.78368854 74.9912462 -1.76840564 71.08701765 -1.7555027 67.18271065 C-1.74676668 65.37919232 -1.73279263 63.57569017 -1.71304893 61.77225876 C-1.58105936 49.47043557 -1.72447864 38.84474862 -9.98828125 29.0390625 C-16.82638066 22.10801805 -24.88224392 18.65547387 -34.5 17.625 C-46.31271317 18.89064784 -53.61679059 24.07590796 -61.45703125 32.6796875 Z " fill="#000000" transform="translate(222,66)"/>
<path d="M0 0 C2.87029869 1.79393668 4.49131638 2.98263276 6 6 C6.07956178 8.58325585 6.09751663 11.13855832 6.07073975 13.72129822 C6.06650537 14.52787276 6.06227099 15.33444731 6.0579083 16.16546351 C6.04801919 17.93968173 6.0358091 19.7138881 6.02162361 21.48807716 C5.99052565 25.38491193 5.97043197 29.2817845 5.94936895 33.17868435 C5.93784037 35.27830114 5.92569897 37.37791464 5.91299295 39.47752464 C5.86689899 47.19738534 5.84153396 54.91711544 5.82891846 62.63710022 C5.82708392 63.75658064 5.82524938 64.87606107 5.82335925 66.02946514 C5.81626186 70.65035125 5.80995642 75.27123792 5.80426168 79.89212596 C5.78744949 93.01451483 5.74971496 106.13603308 5.64697266 119.25805664 C5.56553851 129.67519796 5.53009353 140.09134937 5.54848695 150.50880915 C5.55651439 156.02145944 5.54152126 161.53186142 5.4708786 167.04411125 C5.40489103 172.23666359 5.40020874 177.42574206 5.44149208 182.61851501 C5.4459191 184.51841 5.42831724 186.41851136 5.38641167 188.3179493 C4.92386672 199.2364373 4.92386672 199.2364373 9.84415436 208.51562691 C12.99689845 211.3948505 16.42043057 213.68366998 20 216 C30.66523345 224.66600587 38.85396718 233.8882084 41 248 C42.14411301 262.85471317 38.77698747 274.73598416 29.22265625 286.1171875 C21.46910228 294.52083495 11.39607573 299.67924833 -0.078125 300.3359375 C-14.72914356 300.65364533 -25.97201157 297.31005694 -36.96484375 287.19140625 C-45.84585923 277.84399171 -49.57326063 266.74883862 -50 254 C-49.48232311 239.82859524 -43.26319656 228.55335011 -33 219 C-29.43487249 215.99980497 -25.75727814 213.15451395 -22.0390625 210.34765625 C-21.03617188 209.57292969 -20.03328125 208.79820312 -19 208 C-18.45012672 207.61836134 -17.90025345 207.23672268 -17.33371735 206.84351921 C-15.1968256 203.88981917 -15.58954881 200.66591902 -15.62145996 197.15603638 C-15.61692983 196.34845756 -15.6123997 195.54087875 -15.6077323 194.70882785 C-15.59607287 191.99338575 -15.60576951 189.27843289 -15.61523438 186.56298828 C-15.61113087 184.61994101 -15.60567131 182.67689619 -15.59895325 180.7338562 C-15.58721006 176.54481255 -15.58475041 172.35590073 -15.58930969 168.16684341 C-15.59610427 161.54498793 -15.58027713 154.9233067 -15.56091309 148.30148315 C-15.52300883 134.24266486 -15.51025173 120.18386155 -15.5 106.125 C-15.48893451 90.95560727 -15.47362157 75.78629434 -15.42928743 60.61695659 C-15.41090503 54.03251035 -15.40704832 47.44826229 -15.41422272 40.86379647 C-15.41574275 36.76853687 -15.40497199 32.67337673 -15.39084435 28.57814407 C-15.38683583 26.67742792 -15.38797667 24.77669297 -15.39461708 22.87598419 C-15.4029807 20.2830558 -15.39302891 17.69081757 -15.37854004 15.09793091 C-15.38543397 14.34413371 -15.39232791 13.59033652 -15.39943075 12.81369698 C-15.3509615 8.36711329 -14.76447865 5.52052616 -12 2 C-7.98141405 -0.6790573 -4.72358279 -0.69610694 0 0 Z " fill="#000000" transform="translate(192,106)"/>
<path d="M0 0 C4.68633245 1.38891303 6.59582156 3.4867696 9.6640625 7.1484375 C10.18605225 7.74261475 10.70804199 8.33679199 11.24584961 8.94897461 C12.73431358 10.64845663 14.20089248 12.3646857 15.6640625 14.0859375 C16.85008828 15.44139553 18.03729401 16.7958237 19.2265625 18.1484375 C19.75378906 18.75816406 20.28101563 19.36789063 20.82421875 19.99609375 C23.23076406 22.72964309 25.69709446 25.40707756 28.1640625 28.0859375 C31.76421573 31.99572931 35.30823914 35.94460286 38.7890625 39.9609375 C41.20956325 42.70417168 43.68606892 45.39478318 46.1640625 48.0859375 C49.76294565 51.994402 53.30616744 55.94152369 56.78515625 59.95703125 C58.75056781 62.18395287 60.75244237 64.37517504 62.7644043 66.56005859 C64.20124437 68.12093379 65.63217463 69.6870623 67.0625 71.25390625 C68.59178839 72.91867214 70.13348347 74.57244467 71.703125 76.19921875 C74.27246343 78.94512309 75.59498392 80.6282919 76.1640625 84.3984375 C75.6640625 87.0859375 75.6640625 87.0859375 73.6640625 89.0859375 C71.48739624 89.32644653 71.48739624 89.32644653 68.75537109 89.31298828 C67.73446381 89.31283722 66.71355652 89.31268616 65.66171265 89.31253052 C64.55647247 89.30220795 63.4512323 89.29188538 62.3125 89.28125 C61.1833316 89.2784201 60.05416321 89.27559021 58.89077759 89.27267456 C55.27343279 89.26145212 51.65633284 89.23634372 48.0390625 89.2109375 C45.5911494 89.20091037 43.14323243 89.19178406 40.6953125 89.18359375 C34.68481186 89.16150607 28.67445467 89.12800824 22.6640625 89.0859375 C22.67405525 90.13377159 22.67405525 90.13377159 22.68424988 91.20277405 C22.74453219 97.80809856 22.79012346 104.41334553 22.81949902 111.01888371 C22.8351094 114.41432052 22.85626182 117.80952871 22.89038086 121.20483398 C22.92941864 125.11439209 22.94381003 129.02385982 22.95703125 132.93359375 C22.97251511 134.14427017 22.98799896 135.35494659 23.00395203 136.60231018 C23.00537944 143.78783011 22.96861838 149.45060083 17.92749023 154.99633789 C13.0776771 157.33100686 7.26044567 156.56289485 1.96508789 156.53198242 C-0.26314808 156.52347678 -2.48881431 156.55223692 -4.71679688 156.58398438 C-6.14062424 156.5855968 -7.56445611 156.58501807 -8.98828125 156.58203125 C-10.27726318 156.58388428 -11.56624512 156.5857373 -12.89428711 156.58764648 C-16.94683055 155.99688414 -18.53451638 155.03704564 -21.3359375 152.0859375 C-23.180714 148.34371032 -23.5810663 145.34299654 -23.56298828 141.1940918 C-23.56283722 140.03326584 -23.56268616 138.87243988 -23.56253052 137.67643738 C-23.55220795 136.43356461 -23.54188538 135.19069183 -23.53125 133.91015625 C-23.5284201 132.62986038 -23.52559021 131.34956451 -23.52267456 130.0304718 C-23.5150653 126.63890675 -23.49544043 123.247515 -23.4732666 119.85601807 C-23.45274956 116.39036401 -23.44366036 112.92468175 -23.43359375 109.45898438 C-23.41155242 102.66789384 -23.37808879 95.87693138 -23.3359375 89.0859375 C-24.28767349 89.09259933 -24.28767349 89.09259933 -25.25863647 89.09939575 C-31.84427648 89.1435383 -38.42987467 89.17376602 -45.015625 89.19580078 C-47.47560329 89.20587733 -49.93556956 89.21953881 -52.39550781 89.23681641 C-55.92516035 89.26099211 -59.45465497 89.2724039 -62.984375 89.28125 C-64.08961517 89.29157257 -65.19485535 89.30189514 -66.33358765 89.31253052 C-67.35449493 89.31268158 -68.37540222 89.31283264 -69.42724609 89.31298828 C-70.32881439 89.3174295 -71.23038269 89.32187073 -72.15927124 89.32644653 C-74.3359375 89.0859375 -74.3359375 89.0859375 -76.3359375 87.0859375 C-76.87109375 84.421875 -76.87109375 84.421875 -76.3359375 81.0859375 C-74.4494168 78.32900834 -72.14217885 76.05583946 -69.7734375 73.7109375 C-68.47318715 72.37444775 -67.17369817 71.03721683 -65.875 69.69921875 C-65.25399414 69.06838379 -64.63298828 68.43754883 -63.99316406 67.78759766 C-62.1385462 65.88325374 -60.3754583 63.91896676 -58.6484375 61.8984375 C-55.77908952 58.5641825 -52.81587232 55.32113861 -49.8359375 52.0859375 C-46.1916898 48.1274141 -42.59679784 44.13416703 -39.0703125 40.0703125 C-35.54093036 36.03219059 -31.92959524 32.06679069 -28.3359375 28.0859375 C-26.83565071 26.41952899 -25.33564878 24.75286397 -23.8359375 23.0859375 C-21.5642246 20.56093257 -19.29158336 18.03680446 -17.015625 15.515625 C-16.25507813 14.67257813 -15.49453125 13.82953125 -14.7109375 12.9609375 C-13.9684375 12.14753906 -13.2259375 11.33414063 -12.4609375 10.49609375 C-11.07479111 8.92393874 -9.73758475 7.30683236 -8.4609375 5.64453125 C-7.8834375 4.90332031 -7.3059375 4.16210938 -6.7109375 3.3984375 C-6.22367187 2.73457031 -5.73640625 2.07070313 -5.234375 1.38671875 C-3.3359375 0.0859375 -3.3359375 0.0859375 0 0 Z " fill="#000000" transform="translate(343.3359375,55.9140625)"/>
</svg>
