<?xml version="1.0" encoding="UTF-8"?>
<svg version="1.1" xmlns="http://www.w3.org/2000/svg" width="512" height="512">
<path d="M0 0 C14.41370305 11.38354956 22.75290021 25.71925685 25 44 C25.07101613 46.49040174 25.09101384 48.98257588 25.07073975 51.47390747 C25.06650537 52.19350486 25.06227099 52.91310224 25.0579083 53.65450561 C25.04809405 55.22132934 25.03591239 56.78813966 25.02162361 58.35492897 C24.99839123 60.90584219 24.9812707 63.45673446 24.96574402 66.00770569 C24.94898371 68.75855299 24.93187734 71.50939285 24.91299295 74.26022649 C24.86671518 81.08249364 24.84149138 87.90461147 24.82891846 94.72702026 C24.82616665 96.2153418 24.82616665 96.2153418 24.82335925 97.73373044 C24.81626781 101.82457846 24.80996398 105.91542713 24.80426168 110.00627732 C24.78745229 121.5984012 24.74964172 133.18953917 24.64697266 144.78125 C24.56543652 154.00198912 24.53011445 163.22160922 24.54848695 172.44270885 C24.55649673 177.31606895 24.54172891 182.18688345 24.4708786 187.05978775 C24.40469877 191.64928242 24.4003123 196.23485084 24.44149208 200.82459831 C24.44590396 202.49952325 24.42846454 204.17468592 24.38641167 205.84908867 C24.14518682 216.01568942 24.14518682 216.01568942 28.82437897 224.73159409 C31.0081443 227.00888271 33.31204246 229.06649487 35.72862625 231.091856 C49.48996333 242.64642186 57.1424142 264.76868029 59 282 C60.35089217 309.82997107 55.21471718 335.66155092 36 357 C22.16737134 371.97496286 5.84085409 382.05928928 -14 387 C-15.24330078 387.33644531 -15.24330078 387.33644531 -16.51171875 387.6796875 C-39.32598697 392.90870345 -64.87314435 388.01912711 -84.8125 376.1875 C-107.32153077 361.51494661 -122.44813574 341.14707118 -129 315 C-134.10507015 289.56117585 -129.89631507 263.90516904 -116 242 C-108.3446275 230.53573512 -108.3446275 230.53573512 -103.79673576 227.55685806 C-99.62721617 224.66556659 -97.33573854 222.45520733 -96.17329788 217.41678619 C-95.75366532 212.83733263 -95.85452004 208.25960115 -95.93408203 203.66699219 C-95.93166716 201.9020442 -95.92524927 200.13709785 -95.91514587 198.37217712 C-95.90208371 194.58103538 -95.91735263 190.79145586 -95.95492935 187.00048065 C-96.01441895 180.99780534 -96.01149694 174.99612598 -96.0007019 168.9932251 C-95.99115429 159.49123056 -96.02475181 149.98994246 -96.07607162 140.48810029 C-96.16649268 123.49174577 -96.18394319 106.49523333 -96.18526542 89.49866414 C-96.1874339 83.54073928 -96.20839933 77.58326531 -96.24545598 71.62545824 C-96.26621597 67.90684668 -96.27493811 64.18826785 -96.28108406 60.4696064 C-96.28662498 58.75562814 -96.29734778 57.04165686 -96.31386757 55.32774925 C-96.43161056 42.78553453 -95.50363192 31.30938447 -89.1875 20.1875 C-88.83204102 19.5486084 -88.47658203 18.9097168 -88.11035156 18.25146484 C-79.82584361 3.68821123 -66.24427395 -5.14691977 -50.3125 -9.8125 C-32.79250164 -13.74602221 -14.60094436 -10.53590872 0 0 Z M-59.75390625 27.78125 C-68.57122129 38.56533456 -68.54444209 50.3433108 -68.37133789 63.54736328 C-68.36204968 65.40627206 -68.35469721 67.26519137 -68.34912109 69.12411499 C-68.33403524 73.10794671 -68.30729826 77.09146648 -68.27189827 81.07516861 C-68.21790021 87.37946571 -68.20218033 93.68350466 -68.19371033 99.98800659 C-68.16467522 117.90850886 -68.09941028 135.82851478 -67.96264648 153.74853516 C-67.88732312 163.66058336 -67.85134509 173.57197515 -67.85867494 183.48431575 C-67.86113538 189.74758224 -67.81547951 196.00803947 -67.7340976 202.27074838 C-67.69511633 206.16982406 -67.70235606 210.06780788 -67.72258759 213.9669838 C-67.72279302 215.76937845 -67.70425151 217.57189172 -67.66519737 219.37386322 C-67.38558216 232.97660278 -67.38558216 232.97660278 -71.38509941 237.98931503 C-74.15307843 240.26820161 -76.94890227 242.12716866 -80 244 C-91.84728964 254.23117436 -100.7084736 269.6950169 -102.23706055 285.44213867 C-103.22431689 304.51291014 -100.00334134 321.84754758 -87.11279297 336.67602539 C-73.24901673 351.98602289 -57.76014766 359.01421971 -37.51953125 361.27734375 C-21.72243319 362.01829582 -6.19396215 355.57809568 6 346 C6.76054687 345.42765625 7.52109375 344.8553125 8.3046875 344.265625 C21.42958806 333.63854289 28.57249176 317.38131458 31 301 C32.80819864 281.95945047 26.66546175 264.42039055 14.61726093 249.69962692 C12.53721553 247.55412186 10.74717567 246.02835715 8.34015942 244.33446121 C-2.84115368 236.27547845 -2.84115368 236.27547845 -4.37059593 229.77870941 C-5.03488377 224.86934452 -4.87978834 219.9812319 -4.73120117 215.04199219 C-4.73028227 213.16306772 -4.73604566 211.28413006 -4.7479248 209.40524292 C-4.76179563 204.33742918 -4.68448342 199.27469168 -4.5911119 194.20787716 C-4.51011549 188.88978239 -4.5180093 183.57183897 -4.51716614 178.25323486 C-4.50294528 168.18760619 -4.41596226 158.12408511 -4.29950076 148.05917096 C-4.09392578 130.03089929 -4.02600664 112.00166245 -3.9646681 93.97240949 C-3.9404519 87.65125959 -3.88879673 81.33109326 -3.81333482 75.01035261 C-3.76918964 71.07670559 -3.74079774 67.14304131 -3.71556854 63.20923233 C-3.70018026 61.39073621 -3.67777042 59.57228331 -3.64767647 57.7539711 C-3.44599761 45.35458253 -4.24118107 36.24862347 -13.015625 26.85546875 C-19.78706771 20.52390322 -26.15422523 17.54127544 -35.375 16.6875 C-44.83142626 17.50270916 -53.0459692 20.96873487 -59.75390625 27.78125 Z " fill="#000000" transform="translate(221,67)"/>
<path d="M0 0 C1.96549805 -0.0299707 1.96549805 -0.0299707 3.97070312 -0.06054688 C5.87045898 -0.05958008 5.87045898 -0.05958008 7.80859375 -0.05859375 C8.96029053 -0.06044678 10.1119873 -0.0622998 11.29858398 -0.06420898 C15.3067907 0.55190776 17.44389358 1.8772061 20.5625 4.4375 C22.70854997 7.73034835 22.80614156 10.42537414 22.78955078 14.30761719 C22.78939972 15.48853943 22.78924866 16.66946167 22.78909302 17.88616943 C22.77877045 19.15607727 22.76844788 20.42598511 22.7578125 21.734375 C22.7549826 23.03828186 22.75215271 24.34218872 22.74923706 25.68560791 C22.74161721 29.1445895 22.72198308 32.60340193 22.6998291 36.06231689 C22.67933503 39.59490674 22.67022774 43.12752403 22.66015625 46.66015625 C22.63873548 53.58600679 22.60461956 60.51174526 22.5625 67.4375 C23.19477005 67.43083817 23.8270401 67.42417633 24.47846985 67.41731262 C31.04801355 67.35103853 37.61746259 67.30573239 44.18725586 67.27270508 C46.64042008 67.25760119 49.09355724 67.23711679 51.54663086 67.21118164 C55.06891555 67.17486943 58.59084381 67.15778964 62.11328125 67.14453125 C63.21336014 67.12904739 64.31343903 67.11356354 65.44685364 67.09761047 C66.97810127 67.09727058 66.97810127 67.09727058 68.5402832 67.09692383 C69.88930473 67.08693108 69.88930473 67.08693108 71.26557922 67.07673645 C73.5625 67.4375 73.5625 67.4375 75.36808777 68.79032898 C76.5625 70.4375 76.5625 70.4375 76.6953125 73.1328125 C75.05139891 77.92850526 71.97466378 80.76858591 68.4375 84.3125 C67.12106008 85.6627615 65.80595205 87.01432281 64.4921875 88.3671875 C63.83766602 89.03717773 63.18314453 89.70716797 62.50878906 90.39746094 C59.98077243 93.04724857 57.58269614 95.79689158 55.18798828 98.56689453 C52.86487512 101.24032395 50.46601574 103.83604767 48.0625 106.4375 C45.02281004 109.73702777 42.00091941 113.04701607 39.0625 116.4375 C35.6557265 120.3683925 32.13247215 124.18946573 28.609375 128.015625 C25.50132594 131.39690915 22.45852102 134.82462134 19.453125 138.296875 C16.48487177 141.65762452 13.43471982 144.94355837 10.38085938 148.2265625 C8.42258008 150.3445298 6.64123624 152.30391379 5.171875 154.796875 C3.5625 156.4375 3.5625 156.4375 0.25 157.0625 C-4.51953009 156.25410507 -6.48847681 154.00767859 -9.4375 150.4375 C-9.95948975 149.83881104 -10.48147949 149.24012207 -11.01928711 148.62329102 C-12.50953817 146.90879574 -13.974894 145.17556965 -15.4375 143.4375 C-16.62234388 142.08100872 -17.8093094 140.7263621 -19 139.375 C-19.52722656 138.76527344 -20.05445313 138.15554687 -20.59765625 137.52734375 C-23.00420156 134.79379441 -25.47053196 132.11635994 -27.9375 129.4375 C-31.53765323 125.52770819 -35.08167664 121.57883464 -38.5625 117.5625 C-40.98300075 114.81926582 -43.45950642 112.12865432 -45.9375 109.4375 C-49.53830913 105.52694385 -53.08511773 101.579317 -56.5625 97.55859375 C-58.5040397 95.36222696 -60.49146439 93.21194028 -62.48730469 91.06494141 C-76.40885073 76.04185889 -76.40885073 76.04185889 -76.5 70.9375 C-75.4375 68.4375 -75.4375 68.4375 -73.4375 67.4375 C-71.80332405 67.3472165 -70.16547163 67.31994342 -68.52880859 67.32397461 C-67.50790131 67.32405014 -66.48699402 67.32412567 -65.43515015 67.32420349 C-63.77728989 67.33194542 -63.77728989 67.33194542 -62.0859375 67.33984375 C-60.9567691 67.3412587 -59.82760071 67.34267365 -58.66421509 67.34413147 C-55.04695012 67.34974256 -51.42974636 67.36229697 -47.8125 67.375 C-45.36458423 67.38001357 -42.91666748 67.38457672 -40.46875 67.38867188 C-34.45831234 67.3997156 -28.44791054 67.41646456 -22.4375 67.4375 C-22.44416183 66.70944656 -22.45082367 65.98139313 -22.45768738 65.23127747 C-22.51786999 58.360446 -22.56351074 51.48965409 -22.59293652 44.61862659 C-22.60857343 41.08637534 -22.62977501 37.55434241 -22.66381836 34.0222168 C-22.70273603 29.95880063 -22.71722547 25.89561279 -22.73046875 21.83203125 C-22.74595261 20.5672847 -22.76143646 19.30253815 -22.77738953 17.99946594 C-22.77761612 16.81861923 -22.77784271 15.63777252 -22.77807617 14.42114258 C-22.78473801 13.38411697 -22.79139984 12.34709137 -22.79826355 11.27864075 C-22.24868104 6.95048384 -20.56777103 4.32504129 -17.16381836 1.65209961 C-11.77454669 -0.7488699 -5.80303764 -0.03130624 0 0 Z " fill="#000000" transform="translate(345.4375,55.5625)"/>
<path d="M0 0 C3.87868484 0.22543772 4.86517859 0.58294462 8.0625 3.0625 C10.59353687 6.49164672 11.12131256 8.01596087 11.0625 12.19384766 C11.053396 13.12887115 11.04429199 14.06389465 11.03491211 15.0272522 C11.01763062 16.5490358 11.01763062 16.5490358 11 18.1015625 C10.9988411 20.24609383 11.00022497 22.39062776 11.00390625 24.53515625 C11.00831783 27.91982135 11.00016375 31.30172493 10.94873047 34.68603516 C10.90329846 37.9509229 10.91543995 41.21151882 10.9375 44.4765625 C10.90978516 45.47893951 10.88207031 46.48131653 10.85351562 47.5140686 C10.92751431 51.89492971 11.12146121 54.62149507 13.96662903 58.07377625 C16.22955641 60.10198803 18.53199166 61.91758308 21 63.6875 C22.52173828 64.92693359 22.52173828 64.92693359 24.07421875 66.19140625 C24.93660156 66.87074219 25.79898438 67.55007813 26.6875 68.25 C36.85666903 76.57795458 43.36198155 85.84461616 45.5 99.125 C46.81025619 112.50053194 43.97749269 123.6070271 35.95703125 134.44921875 C28.50571146 143.27210891 18.81096311 149.85652354 7.06298828 150.8515625 C-7.49521765 151.65569816 -18.8790008 149.11396785 -30.41796875 139.71875 C-39.08060376 131.70907743 -44.31697978 121.27861375 -45.25 109.54296875 C-45.73139639 95.89838986 -42.07771285 84.7721452 -33.10546875 74.5234375 C-27.53329466 68.67213781 -21.23928523 63.77954071 -14.84375 58.875 C-12.85070398 57.36230707 -12.85070398 57.36230707 -11 55.6875 C-10.90349732 54.18455698 -10.87484408 52.67718037 -10.87402344 51.17114258 C-10.87021667 50.20956741 -10.86640991 49.24799225 -10.86248779 48.25727844 C-10.86146057 47.20944687 -10.86043335 46.1616153 -10.859375 45.08203125 C-10.84104209 42.87954699 -10.82147133 40.67707275 -10.80078125 38.47460938 C-10.77183198 34.9896567 -10.75000075 31.50534431 -10.74951172 28.02026367 C-10.7461746 24.66526994 -10.7115981 21.31176621 -10.671875 17.95703125 C-10.6789447 16.91932083 -10.6860144 15.88161041 -10.69329834 14.81245422 C-10.55747058 6.72557755 -10.55747058 6.72557755 -7.61425781 3.03076172 C-4.78507852 0.49485745 -3.73528768 -0.11089135 0 0 Z " fill="#000000" transform="translate(185,255.3125)"/>
</svg>
