<svg xmlns="http://www.w3.org/2000/svg" id="Layer_1" version="1.1" viewBox="8.41 0.71 13.17 28.57">
  <!-- Generator: Adobe Illustrator 29.5.1, SVG Export Plug-In . SVG Version: 2.1.0 Build 141)  -->
  <path d="M8.42,22.71c0-1.1.26-2.12.76-3.08s1.22-1.75,2.13-2.38V4.43c0-1.03.35-1.91,1.06-2.63s1.59-1.09,2.63-1.09,1.93.36,2.64,1.07c.71.72,1.07,1.59,1.07,2.63v12.83c.92.63,1.62,1.44,2.12,2.38s.75,1.98.75,3.08c0,1.19-.3,2.3-.88,3.31s-1.38,1.81-2.39,2.39-2.11.88-3.31.88-2.29-.3-3.3-.88-1.81-1.38-2.41-2.39-.88-2.11-.88-3.3ZM10.69,22.71c0,1.2.43,2.24,1.27,3.09s1.86,1.28,3.05,1.28,2.24-.43,3.1-1.29,1.31-1.89,1.31-3.07c0-.8-.21-1.55-.62-2.24-.41-.69-.98-1.22-1.71-1.59l-.36-.18c-.13-.05-.19-.18-.19-.38V4.43c0-.41-.14-.76-.44-1.05-.3-.27-.66-.41-1.1-.41-.41,0-.78.14-1.07.41s-.44.62-.44,1.05v13.89c0,.19-.06.32-.18.38l-.35.18c-.71.38-1.27.91-1.67,1.59-.4.69-.59,1.42-.59,2.25ZM11.7,22.71c0,.92.31,1.71.94,2.35s1.38.97,2.28.97,1.66-.32,2.32-.97c.66-.65.98-1.44.98-2.34,0-.81-.28-1.54-.84-2.16s-1.24-1-2.04-1.1v-9.52c0-.08-.04-.17-.13-.25-.09-.09-.18-.13-.28-.13-.12,0-.21.04-.27.1-.06.08-.1.16-.1.27v9.49c-.79.12-1.46.48-2.02,1.1-.56.63-.83,1.35-.83,2.17Z"/>
</svg>