<?xml version="1.0" encoding="UTF-8"?>
<svg id="Layer_1" xmlns="http://www.w3.org/2000/svg" version="1.1" viewBox="0 0 30 30">
  <!-- Generator: Adobe Illustrator 29.5.1, SVG Export Plug-In . SVG Version: 2.1.0 Build 141)  -->
  <path d="M15,5.71c-3.35,0-6.03,1.53-7.98,3.34-1.94,1.8-3.24,3.95-3.85,5.43-.14.33-.14.69,0,1.02.61,1.48,1.91,3.64,3.85,5.43,1.95,1.82,4.63,3.34,7.98,3.34s6.03-1.53,7.98-3.34c1.94-1.8,3.24-3.95,3.86-5.43.14-.33.14-.69,0-1.02-.62-1.48-1.92-3.64-3.86-5.43-1.95-1.82-4.63-3.34-7.98-3.34ZM9.03,15c0-3.3,2.67-5.97,5.97-5.97s5.97,2.67,5.97,5.97-2.67,5.97-5.97,5.97-5.97-2.67-5.97-5.97ZM15,12.35c0,1.46-1.19,2.65-2.65,2.65-.29,0-.58-.05-.84-.14-.23-.07-.49.07-.49.31.01.29.05.57.13.86.57,2.12,2.75,3.38,4.88,2.81s3.38-2.75,2.81-4.88c-.46-1.72-1.98-2.88-3.67-2.95-.24,0-.38.25-.31.49.09.27.14.55.14.84h0Z"/>
</svg>