<?xml version="1.0" encoding="UTF-8"?>
<svg version="1.1" id="Layer_1" xmlns="http://www.w3.org/2000/svg" xmlns:xlink="http://www.w3.org/1999/xlink" x="0px" y="0px"
	 viewBox="0 0 30 30" style="enable-background:new 0 0 30 30;" xml:space="preserve" fill="currentColor">
<path d="M0 0 C11.06827742 11.68098564 15.66880722 25.89858779 15.40234375 41.765625 C14.64290121 55.62890329 8.77430939 67.74321636 -0.8125 77.6875 C-4.31176367 80.64606112 -7.94895532 83.22784305 -11.8125 85.6875 C-12.79669922 86.31978516 -12.79669922 86.31978516 -13.80078125 86.96484375 C-27.48810148 94.73173853 -44.63617126 93.12325354 -59.75307035 93.07967401 C-63.27313659 93.07282582 -66.79315977 93.08339272 -70.31321716 93.09161377 C-77.18948195 93.10488988 -84.065648 93.1021016 -90.94191651 93.09337585 C-96.53124359 93.08657875 -102.12054316 93.08569129 -107.7098732 93.0889473 C-108.90668233 93.08963684 -108.90668233 93.08963684 -110.12766943 93.09034032 C-111.74885511 93.09129956 -113.37004078 93.0922722 -114.99122645 93.0932581 C-130.15818009 93.10179317 -145.32507915 93.09200577 -160.49202384 93.075857 C-173.49601189 93.06244002 -186.49991963 93.06479691 -199.50390625 93.07861328 C-214.62883516 93.09467571 -229.75371644 93.10098565 -244.87865269 93.09177649 C-246.49177558 93.09082089 -248.10489849 93.08987778 -249.71802139 93.0889473 C-250.51159374 93.08848447 -251.30516608 93.08802164 -252.12278607 93.08754479 C-257.70618622 93.08495805 -263.28955605 93.08931875 -268.87295151 93.09638596 C-275.67558737 93.10480784 -282.47811941 93.10250572 -289.28074341 93.08654372 C-292.74914628 93.07867263 -296.21737616 93.07554967 -299.68577766 93.08549118 C-303.44839584 93.09368512 -307.21052689 93.08341035 -310.97311401 93.06845093 C-312.06474566 93.07514309 -313.15637731 93.08183526 -314.28108871 93.08873022 C-321.51269481 93.0329365 -327.5354835 92.39103861 -333.3125 87.625 C-335.53114844 83.28014681 -335.81423379 79.45872095 -334.8125 74.6875 C-332.52764447 70.71228114 -330.18594571 68.14531524 -325.8125 66.6875 C-324.1911594 66.594656 -322.56624775 66.55913113 -320.94225216 66.55721474 C-319.93226129 66.55359039 -318.92227041 66.54996604 -317.88167375 66.54623187 C-316.21245083 66.54783424 -316.21245083 66.54783424 -314.50950623 66.54946899 C-313.32976842 66.54664771 -312.15003062 66.54382643 -310.93454319 66.54091966 C-307.65416293 66.53401256 -304.37381296 66.53154678 -301.09342659 66.53086853 C-297.55746121 66.52903026 -294.02150811 66.52142403 -290.48554993 66.51438904 C-284.35508312 66.50285664 -278.22461906 66.49461567 -272.09414482 66.48826981 C-262.40031496 66.47794564 -252.7065194 66.45738157 -243.01271057 66.43515015 C-239.69612419 66.42767007 -236.37953766 66.42025635 -233.06295109 66.41286278 C-232.23403512 66.41101221 -231.40511916 66.40916165 -230.55108453 66.407255 C-221.11210332 66.38632161 -211.6731183 66.36749748 -202.23413086 66.34960938 C-201.37117218 66.34797119 -200.50821351 66.34633301 -199.61910457 66.34464519 C-185.64542637 66.31837982 -171.67174553 66.29972607 -157.69805311 66.28301747 C-143.34898137 66.26558311 -128.99996135 66.23672183 -114.65093094 66.1981281 C-105.80257833 66.17475442 -96.95431007 66.1607359 -88.10592634 66.15880047 C-82.03715534 66.15668745 -75.9684681 66.14372779 -69.89973473 66.12232114 C-66.4007907 66.11032027 -62.90201295 66.10312188 -59.40304947 66.10903358 C-55.60331129 66.11293264 -51.80406234 66.09845832 -48.00437927 66.07949829 C-46.90717904 66.08502799 -45.80997881 66.09055768 -44.67953008 66.09625494 C-35.65518519 66.01867249 -27.69168113 64.9217579 -20.8125 58.6875 C-20.1525 58.6875 -19.4925 58.6875 -18.8125 58.6875 C-18.38130859 57.82318359 -18.38130859 57.82318359 -17.94140625 56.94140625 C-17.22426327 55.50960175 -16.50333993 54.07967964 -15.77734375 52.65234375 C-15.43832031 51.98332031 -15.09929687 51.31429687 -14.75 50.625 C-14.40839844 49.95339844 -14.06679688 49.28179687 -13.71484375 48.58984375 C-10.79406182 42.43217796 -10.70901413 35.96538237 -12.87109375 29.54296875 C-16.34272772 22.06343215 -20.6454688 16.29302169 -28.10546875 12.53125 C-35.9895708 10.07386754 -45.53766892 10.70505536 -52.8828125 14.421875 C-57.66843946 17.56062628 -60.46291227 20.21787779 -62.9375 25.4375 C-63.69740234 27.02498047 -63.69740234 27.02498047 -64.47265625 28.64453125 C-65.56364954 31.1223265 -66.51130548 33.56319421 -67.375 36.125 C-68.99643743 40.14334493 -70.31858514 42.12529577 -73.8125 44.6875 C-78.16761785 46.16365574 -81.24201174 45.86519307 -85.625 44.5 C-89.84987982 42.09761735 -91.29547475 40.23857575 -92.8125 35.6875 C-94.01209531 22.73187067 -87.93501574 11.36472198 -80.07421875 1.5078125 C-70.84426365 -8.65106742 -56.89439344 -15.11965406 -43.28125 -16.24609375 C-26.39002545 -16.70044631 -12.32308189 -11.66365276 0 0 Z " fill="#000000" transform="translate(440.8125,176.3125)"/>
<path d="M0 0 C0.9076988 -0.00453111 1.8153976 -0.00906223 2.75060242 -0.01373065 C5.79335595 -0.02639431 8.83593092 -0.02475295 11.87870789 -0.02310181 C14.06035594 -0.02908617 16.24200188 -0.0358915 18.42364502 -0.04345703 C24.35399748 -0.06114213 30.28429223 -0.06581371 36.21466851 -0.0670886 C39.92399396 -0.06851032 43.63330476 -0.07278052 47.34262657 -0.07808304 C59.6276491 -0.09564183 71.9126364 -0.10492224 84.19767163 -0.10342209 C84.85972805 -0.10334218 85.52178446 -0.10326227 86.2039032 -0.10317993 C86.86677643 -0.10309817 87.52964967 -0.10301641 88.21260997 -0.10293217 C99.59380824 -0.10207088 110.97483416 -0.12479009 122.35599071 -0.15466726 C132.71634932 -0.18088952 143.07664947 -0.1915446 153.43704098 -0.19026911 C159.61800684 -0.18976086 165.79881323 -0.19536733 171.97974586 -0.21662521 C177.80336598 -0.2361056 183.62667628 -0.23606528 189.45030785 -0.22159195 C191.5770094 -0.21951427 193.70373082 -0.22414192 195.83039856 -0.23631287 C215.76535867 -0.34292285 233.22033314 1.7122066 248.37748718 16.07992554 C259.44128973 27.85294619 263.64238059 40.9026091 263.47514343 56.87973022 C262.95284205 71.80505987 256.801728 84.94145822 246.00248718 95.26742554 C231.87497943 107.24835084 215.84139151 109.53546309 198.00248718 108.26742554 C184.70760895 105.81061066 173.23155737 97.6899667 165.00248718 87.20101929 C158.70951388 77.97050571 154.9863665 68.44475302 156.00248718 57.26742554 C157.58173287 53.55619818 159.44357092 51.19116406 163.00248718 49.26742554 C167.49807747 48.25229225 169.87906635 47.90015334 174.25248718 49.32992554 C179.2069719 52.82058522 180.94865902 56.97237278 182.75248718 62.57992554 C185.38629865 70.10217308 190.0162421 76.04255851 197.12748718 79.82992554 C204.8951158 82.72769373 213.87474072 82.66947997 221.43998718 79.26742554 C228.41399352 75.20690211 233.82049627 69.09692235 236.00248718 61.26742554 C237.06075523 51.0683672 235.50218857 43.60686497 229.31498718 35.45492554 C225.01035378 30.73406804 219.13365877 28.61066479 213.00248718 27.26742554 C210.03846518 27.1694751 207.09790924 27.12566084 204.13386536 27.12939453 C203.22813243 27.12657325 202.3223995 27.12375197 201.38922012 27.1208452 C198.34770286 27.11249781 195.306222 27.11116083 192.26469421 27.10971069 C190.08667396 27.10504264 187.90865469 27.09989909 185.7306366 27.09431458 C181.03691321 27.08303194 176.34319619 27.07459861 171.64946365 27.06819534 C164.2291807 27.05752162 156.80894344 27.03727907 149.38868713 27.01507568 C128.28715293 26.95312823 107.18562847 26.89911442 86.08403015 26.86605835 C74.43252678 26.84772581 62.78109997 26.81880855 51.12965286 26.77805364 C44.96244949 26.7569637 38.79534268 26.74152351 32.62810135 26.73924637 C26.82834016 26.73710236 21.02878015 26.72125805 15.2290802 26.69485664 C13.09980757 26.68765327 10.9705106 26.68556769 8.84122849 26.68895912 C5.93560546 26.69284805 3.03062677 26.6784177 0.12507629 26.65942383 C-1.1403012 26.66771837 -1.1403012 26.66771837 -2.43124187 26.67618048 C-8.53556142 26.60724629 -12.65767347 25.29939129 -17.37251282 21.20492554 C-19.75436121 16.89927652 -19.89017129 13.07700781 -18.99751282 8.26742554 C-17.35772652 4.98113251 -15.14416246 2.8856832 -11.88407612 1.12788963 C-7.88757434 -0.06343927 -4.14938901 -0.01518921 0 0 Z " fill="#000000" transform="translate(99.99751281738281,298.7325744628906)"/>
<path d="M0 0 C0.886875 0.804375 1.77375 1.60875 2.6875 2.4375 C13.65431551 14.58991719 18.54449697 28.08058674 17.875 44.5 C16.4238739 60.82933848 9.36633473 73.37928459 -3 84 C-15.05069361 93.1014963 -29.27712449 95.1567239 -43.96290588 95.14044189 C-45.24616749 95.14489858 -45.24616749 95.14489858 -46.55535358 95.1494453 C-49.39701999 95.15805656 -52.23864389 95.15963403 -55.08032227 95.16113281 C-57.12775765 95.16576611 -59.17519219 95.17079145 -61.22262573 95.17617798 C-66.76584126 95.18924882 -72.30904471 95.19573572 -77.85227323 95.20018864 C-81.31765927 95.20312606 -84.78304205 95.20723197 -88.24842644 95.21169281 C-99.097991 95.22534951 -109.94754807 95.23502688 -120.79712063 95.2388947 C-133.30982007 95.24338059 -145.82241056 95.2609608 -158.33507687 95.2898953 C-168.01853266 95.31150905 -177.70195777 95.32159871 -187.38543743 95.32293582 C-193.16476734 95.32398343 -198.94399456 95.32988294 -204.72329903 95.34775543 C-210.15621308 95.36423224 -215.58894716 95.36639346 -221.02187729 95.35761642 C-223.01326288 95.35684603 -225.00465816 95.36118907 -226.99601936 95.37107468 C-229.71891927 95.38379753 -232.44118192 95.37791569 -235.16407776 95.36749268 C-235.94784414 95.37554908 -236.73161053 95.38360548 -237.53912741 95.39190602 C-243.34805707 95.34006483 -249.0775405 94.48678589 -253.66470343 90.58346677 C-256.50466686 87.2156848 -256.27876924 83.39718522 -256.2109375 79.21875 C-255.91147287 76.06882579 -255.09130036 74.37014041 -253 72 C-247.98465351 68.8640474 -244.01257692 68.57037188 -238.29069519 68.61473083 C-237.42620563 68.60949514 -236.56171608 68.60425944 -235.67102987 68.59886509 C-232.78078778 68.58492152 -229.89099343 68.59220059 -227.00073242 68.59936523 C-224.92580265 68.59362176 -222.85087623 68.5865386 -220.7759552 68.57821655 C-216.3103291 68.56310674 -211.84482253 68.55732893 -207.37917137 68.55874443 C-200.31491328 68.56077845 -193.25081577 68.5412081 -186.18659973 68.51856995 C-172.46223847 68.47758719 -158.73788981 68.45899167 -145.01348114 68.44239807 C-127.55487517 68.42004733 -110.09630634 68.38645927 -92.63776094 68.33519894 C-85.6187593 68.31530039 -78.59984156 68.3056988 -71.58081281 68.30424678 C-67.20895834 68.30149139 -62.83714998 68.29064989 -58.46531487 68.27773666 C-56.44210997 68.2734663 -54.41889454 68.27259068 -52.3956871 68.27541161 C-49.62710407 68.27882814 -46.8588103 68.2699937 -44.09025574 68.25828552 C-43.29568299 68.26226662 -42.50111024 68.26624771 -41.68245953 68.27034944 C-31.09554528 68.1913674 -22.97863772 65.75233601 -15.25 58.375 C-10.74127142 52.46015946 -8.04427977 44.3726989 -9 37 C-11.00909306 28.80463477 -14.58868106 21.55963861 -22 17 C-30.27209428 13.16384752 -36.69688598 11.77834085 -45.5 14.625 C-53.97531009 17.96868398 -58.13484693 22.24691977 -61.95703125 30.47265625 C-62.88974085 32.73281772 -63.67802502 34.99017477 -64.4375 37.3125 C-66.00286265 41.5527406 -68.02829773 43.68919141 -72 46 C-76.16161647 46.82555644 -80.04684415 46.98058029 -83.90625 45.04296875 C-87.21722649 42.48670014 -88.75775031 39.90586414 -90 36 C-90.68918422 24.81401002 -85.87025157 14.42115016 -78.80078125 6.01953125 C-78.20652344 5.35308594 -77.61226562 4.68664062 -77 4 C-76.21689453 3.07767578 -76.21689453 3.07767578 -75.41796875 2.13671875 C-66.59525445 -7.54465388 -53.84256255 -13.04016807 -40.88671875 -13.99609375 C-25.60825394 -14.01676826 -11.52612517 -10.45844199 0 0 Z " fill="#000000" transform="translate(312,118)"/>
</svg>
