<svg xmlns="http://www.w3.org/2000/svg" xmlns:xlink="http://www.w3.org/1999/xlink" width="382" zoomAndPan="magnify" viewBox="0 0 286.5 48" height="64" preserveAspectRatio="xMidYMid meet" version="1.2"><defs/><g id="d9fe537d5c"><g style="fill:#222222;fill-opacity:1;"><g transform="translate(2.448552, 36.130252)"><path style="stroke:none" d="M 8.625 0.46875 C 6.519531 0.46875 4.804688 0.101562 3.484375 -0.625 C 2.160156 -1.363281 1.5 -2.410156 1.5 -3.765625 C 1.5 -4.523438 1.726562 -5.140625 2.1875 -5.609375 C 2.65625 -6.085938 3.257812 -6.328125 4 -6.328125 C 4.414062 -6.328125 4.789062 -6.207031 5.125 -5.96875 C 5.457031 -5.738281 5.625 -5.554688 5.625 -5.421875 C 5.625 -5.398438 5.472656 -5.226562 5.171875 -4.90625 C 4.867188 -4.59375 4.71875 -4.144531 4.71875 -3.5625 C 4.71875 -2.769531 5.078125 -2.140625 5.796875 -1.671875 C 6.523438 -1.210938 7.578125 -0.984375 8.953125 -0.984375 C 10.191406 -0.984375 11.160156 -1.253906 11.859375 -1.796875 C 12.554688 -2.335938 12.90625 -3.097656 12.90625 -4.078125 C 12.90625 -4.734375 12.707031 -5.269531 12.3125 -5.6875 C 11.914062 -6.113281 11.421875 -6.445312 10.828125 -6.6875 C 10.234375 -6.925781 9.410156 -7.203125 8.359375 -7.515625 C 7.066406 -7.890625 6.007812 -8.257812 5.1875 -8.625 C 4.363281 -9 3.660156 -9.554688 3.078125 -10.296875 C 2.503906 -11.035156 2.21875 -12 2.21875 -13.1875 C 2.21875 -14.289062 2.5625 -15.238281 3.25 -16.03125 C 3.9375 -16.820312 4.828125 -17.414062 5.921875 -17.8125 C 7.015625 -18.207031 8.171875 -18.40625 9.390625 -18.40625 C 10.941406 -18.40625 12.289062 -18.078125 13.4375 -17.421875 C 14.59375 -16.765625 15.171875 -15.84375 15.171875 -14.65625 C 15.171875 -13.9375 14.953125 -13.328125 14.515625 -12.828125 C 14.078125 -12.328125 13.5 -12.078125 12.78125 -12.078125 C 12.363281 -12.078125 11.988281 -12.191406 11.65625 -12.421875 C 11.332031 -12.660156 11.171875 -12.847656 11.171875 -12.984375 C 11.171875 -13.015625 11.273438 -13.117188 11.484375 -13.296875 C 11.691406 -13.484375 11.878906 -13.703125 12.046875 -13.953125 C 12.222656 -14.203125 12.3125 -14.5 12.3125 -14.84375 C 12.257812 -15.5625 11.898438 -16.117188 11.234375 -16.515625 C 10.578125 -16.910156 9.800781 -17.109375 8.90625 -17.109375 C 7.90625 -17.109375 7.023438 -16.875 6.265625 -16.40625 C 5.515625 -15.945312 5.140625 -15.304688 5.140625 -14.484375 C 5.140625 -13.742188 5.296875 -13.15625 5.609375 -12.71875 C 5.929688 -12.289062 6.410156 -11.941406 7.046875 -11.671875 C 7.679688 -11.410156 8.6875 -11.054688 10.0625 -10.609375 C 11.457031 -10.160156 12.550781 -9.742188 13.34375 -9.359375 C 14.132812 -8.984375 14.757812 -8.46875 15.21875 -7.8125 C 15.6875 -7.164062 15.921875 -6.316406 15.921875 -5.265625 C 15.921875 -4.179688 15.601562 -3.195312 14.96875 -2.3125 C 14.332031 -1.425781 13.457031 -0.738281 12.34375 -0.25 C 11.238281 0.226562 10 0.46875 8.625 0.46875 Z M 8.625 0.46875 "/></g></g><g style="fill:#222222;fill-opacity:1;"><g transform="translate(18.839055, 36.130252)"><path style="stroke:none" d="M 4.234375 -13.65625 C 3.785156 -14.6875 3.363281 -15.394531 2.96875 -15.78125 C 2.570312 -16.164062 1.992188 -16.410156 1.234375 -16.515625 C 1.148438 -16.535156 1 -16.554688 0.78125 -16.578125 C 0.570312 -16.609375 0.441406 -16.675781 0.390625 -16.78125 C 0.335938 -16.894531 0.3125 -17.082031 0.3125 -17.34375 C 0.3125 -17.65625 0.394531 -17.851562 0.5625 -17.9375 C 0.738281 -18.019531 0.953125 -18.066406 1.203125 -18.078125 C 1.453125 -18.085938 1.617188 -18.09375 1.703125 -18.09375 C 3.316406 -18.175781 4.582031 -17.945312 5.5 -17.40625 C 6.425781 -16.863281 7.191406 -15.921875 7.796875 -14.578125 L 11.4375 -4.3125 L 11.5625 -4.3125 C 12.375 -6.84375 13.65625 -11.382812 15.40625 -17.9375 L 17.296875 -17.9375 L 22.734375 -4.3125 L 22.84375 -4.3125 C 23.289062 -5.6875 23.722656 -7.25 24.140625 -9 C 24.566406 -10.757812 24.820312 -11.769531 24.90625 -12.03125 L 25.609375 -14.84375 C 25.691406 -15.164062 25.734375 -15.429688 25.734375 -15.640625 C 25.734375 -16.003906 25.613281 -16.242188 25.375 -16.359375 C 25.132812 -16.484375 24.710938 -16.546875 24.109375 -16.546875 L 23.875 -16.546875 C 23.664062 -16.546875 23.515625 -16.582031 23.421875 -16.65625 C 23.328125 -16.738281 23.265625 -16.941406 23.234375 -17.265625 C 23.234375 -17.453125 23.28125 -17.628906 23.375 -17.796875 C 23.46875 -17.972656 23.609375 -18.0625 23.796875 -18.0625 C 25.296875 -17.976562 26.585938 -17.9375 27.671875 -17.9375 C 28.335938 -17.9375 29.445312 -17.976562 31 -18.0625 C 31.1875 -18.0625 31.332031 -17.972656 31.4375 -17.796875 C 31.539062 -17.628906 31.59375 -17.453125 31.59375 -17.265625 C 31.570312 -16.941406 31.503906 -16.738281 31.390625 -16.65625 C 31.285156 -16.582031 31.128906 -16.546875 30.921875 -16.546875 C 29.835938 -16.546875 29.023438 -16.378906 28.484375 -16.046875 C 27.941406 -15.722656 27.550781 -15.113281 27.3125 -14.21875 L 22.921875 0.390625 L 20.59375 0.390625 L 15.5625 -12.546875 L 11.640625 0.390625 L 9.296875 0.390625 Z M 4.234375 -13.65625 "/></g></g><g style="fill:#222222;fill-opacity:1;"><g transform="translate(49.284327, 36.130252)"><path style="stroke:none" d="M 10.890625 0.46875 C 8.910156 0.46875 7.226562 0.046875 5.84375 -0.796875 C 4.457031 -1.640625 3.40625 -2.785156 2.6875 -4.234375 C 1.976562 -5.691406 1.625 -7.300781 1.625 -9.0625 C 1.625 -10.625 1.984375 -12.125 2.703125 -13.5625 C 3.429688 -15 4.46875 -16.164062 5.8125 -17.0625 C 7.164062 -17.957031 8.710938 -18.40625 10.453125 -18.40625 C 12.804688 -18.40625 14.613281 -17.804688 15.875 -16.609375 C 17.144531 -15.410156 17.875 -13.796875 18.0625 -11.765625 C 18.0625 -10.890625 17.820312 -10.289062 17.34375 -9.96875 C 16.863281 -9.65625 16.175781 -9.5 15.28125 -9.5 L 5.65625 -9.5 C 5.65625 -7.039062 6.160156 -5.09375 7.171875 -3.65625 C 8.191406 -2.21875 9.773438 -1.5 11.921875 -1.5 C 13.054688 -1.5 14.019531 -1.742188 14.8125 -2.234375 C 15.601562 -2.722656 16.351562 -3.550781 17.0625 -4.71875 C 17.195312 -4.84375 17.328125 -4.90625 17.453125 -4.90625 C 17.640625 -4.90625 17.800781 -4.851562 17.9375 -4.75 C 18.195312 -4.59375 18.328125 -4.351562 18.328125 -4.03125 C 18.328125 -3.875 18.300781 -3.757812 18.25 -3.6875 C 17.4375 -2.363281 16.398438 -1.335938 15.140625 -0.609375 C 13.890625 0.109375 12.472656 0.46875 10.890625 0.46875 Z M 12.109375 -11 C 13.460938 -11 14.175781 -11.554688 14.25 -12.671875 C 14.25 -13.878906 13.921875 -14.90625 13.265625 -15.75 C 12.609375 -16.601562 11.671875 -17.03125 10.453125 -17.03125 C 9.109375 -17.03125 8 -16.492188 7.125 -15.421875 C 6.25 -14.347656 5.757812 -12.875 5.65625 -11 Z M 12.109375 -11 "/></g></g><g style="fill:#222222;fill-opacity:1;"><g transform="translate(68.010698, 36.130252)"><path style="stroke:none" d="M 6.65625 0.46875 C 5.070312 0.46875 3.789062 0.0195312 2.8125 -0.875 C 1.832031 -1.769531 1.34375 -2.890625 1.34375 -4.234375 C 1.34375 -5.898438 1.894531 -7.144531 3 -7.96875 C 4.113281 -8.800781 5.4375 -9.34375 6.96875 -9.59375 C 8.5 -9.851562 10.476562 -10.046875 12.90625 -10.171875 L 12.90625 -13.296875 C 12.90625 -14.597656 12.582031 -15.582031 11.9375 -16.25 C 11.289062 -16.925781 10.253906 -17.265625 8.828125 -17.265625 C 8.015625 -17.265625 7.300781 -17.015625 6.6875 -16.515625 C 6.082031 -16.015625 5.78125 -15.335938 5.78125 -14.484375 C 5.78125 -14.066406 5.878906 -13.71875 6.078125 -13.4375 C 6.273438 -13.164062 6.484375 -12.9375 6.703125 -12.75 C 6.929688 -12.5625 7.046875 -12.457031 7.046875 -12.4375 C 7.046875 -12.269531 6.878906 -12.0625 6.546875 -11.8125 C 6.222656 -11.5625 5.820312 -11.4375 5.34375 -11.4375 C 4.550781 -11.4375 3.921875 -11.726562 3.453125 -12.3125 C 2.992188 -12.894531 2.765625 -13.582031 2.765625 -14.375 C 2.765625 -15.75 3.378906 -16.765625 4.609375 -17.421875 C 5.835938 -18.078125 7.320312 -18.40625 9.0625 -18.40625 C 11.226562 -18.40625 12.988281 -17.992188 14.34375 -17.171875 C 15.707031 -16.359375 16.390625 -14.84375 16.390625 -12.625 L 16.390625 -3.40625 C 16.421875 -2.851562 16.59375 -2.320312 16.90625 -1.8125 C 17.21875 -1.3125 17.734375 -1.0625 18.453125 -1.0625 C 18.660156 -1.0625 18.8125 -1.019531 18.90625 -0.9375 C 19 -0.863281 19.046875 -0.695312 19.046875 -0.4375 C 19.046875 -0.113281 18.800781 0.113281 18.3125 0.25 C 17.820312 0.394531 17.335938 0.46875 16.859375 0.46875 C 15.859375 0.46875 14.972656 0.179688 14.203125 -0.390625 C 13.441406 -0.972656 13.007812 -1.753906 12.90625 -2.734375 C 12.351562 -1.703125 11.5 -0.910156 10.34375 -0.359375 C 9.195312 0.191406 7.96875 0.46875 6.65625 0.46875 Z M 7.921875 -1.65625 C 8.816406 -1.65625 9.644531 -1.878906 10.40625 -2.328125 C 11.175781 -2.785156 11.785156 -3.398438 12.234375 -4.171875 C 12.679688 -4.953125 12.90625 -5.816406 12.90625 -6.765625 L 12.90625 -9.03125 C 10.132812 -8.8125 8.179688 -8.359375 7.046875 -7.671875 C 5.910156 -6.992188 5.34375 -5.890625 5.34375 -4.359375 C 5.34375 -2.554688 6.203125 -1.65625 7.921875 -1.65625 Z M 7.921875 -1.65625 "/></g></g><g style="fill:#222222;fill-opacity:1;"><g transform="translate(86.697477, 36.130252)"><path style="stroke:none" d="M 8.546875 0.671875 C 7.253906 0.671875 6.144531 0.195312 5.21875 -0.75 C 4.300781 -1.695312 3.84375 -3.054688 3.84375 -4.828125 L 3.84375 -16.46875 L 1.546875 -16.390625 C 1.390625 -16.390625 1.253906 -16.460938 1.140625 -16.609375 C 1.035156 -16.753906 0.984375 -16.921875 0.984375 -17.109375 C 0.984375 -17.335938 1.03125 -17.535156 1.125 -17.703125 C 1.21875 -17.878906 1.359375 -17.984375 1.546875 -18.015625 C 2.472656 -18.203125 3.191406 -18.5 3.703125 -18.90625 C 4.210938 -19.3125 4.585938 -19.757812 4.828125 -20.25 C 5.066406 -20.738281 5.359375 -21.484375 5.703125 -22.484375 C 5.835938 -22.828125 6.128906 -23 6.578125 -23 C 6.753906 -23 6.9375 -22.953125 7.125 -22.859375 C 7.3125 -22.773438 7.40625 -22.640625 7.40625 -22.453125 L 7.125 -17.9375 L 11.765625 -18.21875 L 11.84375 -18.21875 C 12.1875 -18.21875 12.359375 -17.960938 12.359375 -17.453125 C 12.359375 -17.171875 12.3125 -16.898438 12.21875 -16.640625 C 12.125 -16.390625 12.007812 -16.265625 11.875 -16.265625 L 7.4375 -16.390625 L 7.4375 -4.359375 C 7.4375 -3.484375 7.613281 -2.753906 7.96875 -2.171875 C 8.332031 -1.597656 8.921875 -1.3125 9.734375 -1.3125 C 10.554688 -1.3125 11.285156 -1.453125 11.921875 -1.734375 C 12.265625 -1.867188 12.472656 -1.9375 12.546875 -1.9375 C 12.734375 -1.9375 12.878906 -1.863281 12.984375 -1.71875 C 13.085938 -1.570312 13.191406 -1.378906 13.296875 -1.140625 C 13.328125 -1.085938 13.34375 -1.023438 13.34375 -0.953125 C 13.34375 -0.847656 13.265625 -0.726562 13.109375 -0.59375 C 12.335938 -0.09375 11.613281 0.238281 10.9375 0.40625 C 10.269531 0.582031 9.472656 0.671875 8.546875 0.671875 Z M 8.546875 0.671875 "/></g></g><g style="fill:#222222;fill-opacity:1;"><g transform="translate(100.554162, 36.130252)"><path style="stroke:none" d="M 10.890625 0.46875 C 8.910156 0.46875 7.226562 0.046875 5.84375 -0.796875 C 4.457031 -1.640625 3.40625 -2.785156 2.6875 -4.234375 C 1.976562 -5.691406 1.625 -7.300781 1.625 -9.0625 C 1.625 -10.625 1.984375 -12.125 2.703125 -13.5625 C 3.429688 -15 4.46875 -16.164062 5.8125 -17.0625 C 7.164062 -17.957031 8.710938 -18.40625 10.453125 -18.40625 C 12.804688 -18.40625 14.613281 -17.804688 15.875 -16.609375 C 17.144531 -15.410156 17.875 -13.796875 18.0625 -11.765625 C 18.0625 -10.890625 17.820312 -10.289062 17.34375 -9.96875 C 16.863281 -9.65625 16.175781 -9.5 15.28125 -9.5 L 5.65625 -9.5 C 5.65625 -7.039062 6.160156 -5.09375 7.171875 -3.65625 C 8.191406 -2.21875 9.773438 -1.5 11.921875 -1.5 C 13.054688 -1.5 14.019531 -1.742188 14.8125 -2.234375 C 15.601562 -2.722656 16.351562 -3.550781 17.0625 -4.71875 C 17.195312 -4.84375 17.328125 -4.90625 17.453125 -4.90625 C 17.640625 -4.90625 17.800781 -4.851562 17.9375 -4.75 C 18.195312 -4.59375 18.328125 -4.351562 18.328125 -4.03125 C 18.328125 -3.875 18.300781 -3.757812 18.25 -3.6875 C 17.4375 -2.363281 16.398438 -1.335938 15.140625 -0.609375 C 13.890625 0.109375 12.472656 0.46875 10.890625 0.46875 Z M 12.109375 -11 C 13.460938 -11 14.175781 -11.554688 14.25 -12.671875 C 14.25 -13.878906 13.921875 -14.90625 13.265625 -15.75 C 12.609375 -16.601562 11.671875 -17.03125 10.453125 -17.03125 C 9.109375 -17.03125 8 -16.492188 7.125 -15.421875 C 6.25 -14.347656 5.757812 -12.875 5.65625 -11 Z M 12.109375 -11 "/></g></g><g style="fill:#222222;fill-opacity:1;"><g transform="translate(119.280533, 36.130252)"><path style="stroke:none" d="M 1.9375 0.125 C 1.75 0.125 1.597656 0.046875 1.484375 -0.109375 C 1.367188 -0.273438 1.3125 -0.460938 1.3125 -0.671875 C 1.332031 -1.015625 1.40625 -1.21875 1.53125 -1.28125 C 1.664062 -1.351562 1.90625 -1.390625 2.25 -1.390625 C 2.9375 -1.390625 3.425781 -1.503906 3.71875 -1.734375 C 4.007812 -1.972656 4.175781 -2.25 4.21875 -2.5625 C 4.257812 -2.882812 4.28125 -3.390625 4.28125 -4.078125 L 4.28125 -13.140625 C 4.28125 -13.828125 4.257812 -14.328125 4.21875 -14.640625 C 4.175781 -14.960938 4.007812 -15.242188 3.71875 -15.484375 C 3.425781 -15.722656 2.9375 -15.84375 2.25 -15.84375 C 1.9375 -15.84375 1.703125 -15.882812 1.546875 -15.96875 C 1.390625 -16.0625 1.3125 -16.28125 1.3125 -16.625 C 1.3125 -16.78125 1.363281 -16.929688 1.46875 -17.078125 C 1.570312 -17.222656 1.726562 -17.3125 1.9375 -17.34375 C 3.65625 -17.601562 5.066406 -17.945312 6.171875 -18.375 C 6.617188 -18.5 6.925781 -18.578125 7.09375 -18.609375 L 7.203125 -18.609375 C 7.628906 -18.609375 7.84375 -18.359375 7.84375 -17.859375 L 7.84375 -15.40625 L 7.953125 -15.40625 C 8.878906 -16.320312 9.816406 -17.050781 10.765625 -17.59375 C 11.710938 -18.132812 12.570312 -18.40625 13.34375 -18.40625 C 14.21875 -18.40625 14.910156 -18.082031 15.421875 -17.4375 C 15.929688 -16.789062 16.1875 -16.046875 16.1875 -15.203125 C 16.1875 -14.460938 15.960938 -13.800781 15.515625 -13.21875 C 15.066406 -12.644531 14.445312 -12.359375 13.65625 -12.359375 C 13.289062 -12.359375 12.96875 -12.4375 12.6875 -12.59375 C 12.414062 -12.75 12.265625 -12.878906 12.234375 -12.984375 C 12.265625 -13.035156 12.394531 -13.195312 12.625 -13.46875 C 12.863281 -13.75 12.984375 -14.078125 12.984375 -14.453125 C 12.984375 -14.929688 12.859375 -15.3125 12.609375 -15.59375 C 12.359375 -15.882812 12.019531 -16.03125 11.59375 -16.03125 C 11.144531 -16.03125 10.578125 -15.8125 9.890625 -15.375 C 9.210938 -14.945312 8.539062 -14.398438 7.875 -13.734375 L 7.875 -4.078125 C 7.875 -3.390625 7.898438 -2.882812 7.953125 -2.5625 C 8.003906 -2.25 8.175781 -1.972656 8.46875 -1.734375 C 8.757812 -1.503906 9.25 -1.390625 9.9375 -1.390625 L 10.171875 -1.390625 C 10.390625 -1.390625 10.550781 -1.347656 10.65625 -1.265625 C 10.757812 -1.179688 10.820312 -0.984375 10.84375 -0.671875 C 10.84375 -0.460938 10.789062 -0.273438 10.6875 -0.109375 C 10.582031 0.046875 10.425781 0.125 10.21875 0.125 C 8.6875 0.0390625 7.300781 0 6.0625 0 C 4.875 0 3.5 0.0390625 1.9375 0.125 Z M 1.9375 0.125 "/></g></g><g style="fill:#222222;fill-opacity:1;"><g transform="translate(134.958404, 36.130252)"><path style="stroke:none" d=""/></g></g><g style="fill:#222222;fill-opacity:1;"><g transform="translate(142.638914, 36.130252)"><path style="stroke:none" d="M 4.234375 -13.65625 C 3.785156 -14.6875 3.363281 -15.394531 2.96875 -15.78125 C 2.570312 -16.164062 1.992188 -16.410156 1.234375 -16.515625 C 1.148438 -16.535156 1 -16.554688 0.78125 -16.578125 C 0.570312 -16.609375 0.441406 -16.675781 0.390625 -16.78125 C 0.335938 -16.894531 0.3125 -17.082031 0.3125 -17.34375 C 0.3125 -17.65625 0.394531 -17.851562 0.5625 -17.9375 C 0.738281 -18.019531 0.953125 -18.066406 1.203125 -18.078125 C 1.453125 -18.085938 1.617188 -18.09375 1.703125 -18.09375 C 3.316406 -18.175781 4.582031 -17.945312 5.5 -17.40625 C 6.425781 -16.863281 7.191406 -15.921875 7.796875 -14.578125 L 11.4375 -4.3125 L 11.5625 -4.3125 C 12.375 -6.84375 13.65625 -11.382812 15.40625 -17.9375 L 17.296875 -17.9375 L 22.734375 -4.3125 L 22.84375 -4.3125 C 23.289062 -5.6875 23.722656 -7.25 24.140625 -9 C 24.566406 -10.757812 24.820312 -11.769531 24.90625 -12.03125 L 25.609375 -14.84375 C 25.691406 -15.164062 25.734375 -15.429688 25.734375 -15.640625 C 25.734375 -16.003906 25.613281 -16.242188 25.375 -16.359375 C 25.132812 -16.484375 24.710938 -16.546875 24.109375 -16.546875 L 23.875 -16.546875 C 23.664062 -16.546875 23.515625 -16.582031 23.421875 -16.65625 C 23.328125 -16.738281 23.265625 -16.941406 23.234375 -17.265625 C 23.234375 -17.453125 23.28125 -17.628906 23.375 -17.796875 C 23.46875 -17.972656 23.609375 -18.0625 23.796875 -18.0625 C 25.296875 -17.976562 26.585938 -17.9375 27.671875 -17.9375 C 28.335938 -17.9375 29.445312 -17.976562 31 -18.0625 C 31.1875 -18.0625 31.332031 -17.972656 31.4375 -17.796875 C 31.539062 -17.628906 31.59375 -17.453125 31.59375 -17.265625 C 31.570312 -16.941406 31.503906 -16.738281 31.390625 -16.65625 C 31.285156 -16.582031 31.128906 -16.546875 30.921875 -16.546875 C 29.835938 -16.546875 29.023438 -16.378906 28.484375 -16.046875 C 27.941406 -15.722656 27.550781 -15.113281 27.3125 -14.21875 L 22.921875 0.390625 L 20.59375 0.390625 L 15.5625 -12.546875 L 11.640625 0.390625 L 9.296875 0.390625 Z M 4.234375 -13.65625 "/></g></g><g style="fill:#222222;fill-opacity:1;"><g transform="translate(173.084186, 36.130252)"><path style="stroke:none" d="M 10.890625 0.46875 C 8.910156 0.46875 7.226562 0.046875 5.84375 -0.796875 C 4.457031 -1.640625 3.40625 -2.785156 2.6875 -4.234375 C 1.976562 -5.691406 1.625 -7.300781 1.625 -9.0625 C 1.625 -10.625 1.984375 -12.125 2.703125 -13.5625 C 3.429688 -15 4.46875 -16.164062 5.8125 -17.0625 C 7.164062 -17.957031 8.710938 -18.40625 10.453125 -18.40625 C 12.804688 -18.40625 14.613281 -17.804688 15.875 -16.609375 C 17.144531 -15.410156 17.875 -13.796875 18.0625 -11.765625 C 18.0625 -10.890625 17.820312 -10.289062 17.34375 -9.96875 C 16.863281 -9.65625 16.175781 -9.5 15.28125 -9.5 L 5.65625 -9.5 C 5.65625 -7.039062 6.160156 -5.09375 7.171875 -3.65625 C 8.191406 -2.21875 9.773438 -1.5 11.921875 -1.5 C 13.054688 -1.5 14.019531 -1.742188 14.8125 -2.234375 C 15.601562 -2.722656 16.351562 -3.550781 17.0625 -4.71875 C 17.195312 -4.84375 17.328125 -4.90625 17.453125 -4.90625 C 17.640625 -4.90625 17.800781 -4.851562 17.9375 -4.75 C 18.195312 -4.59375 18.328125 -4.351562 18.328125 -4.03125 C 18.328125 -3.875 18.300781 -3.757812 18.25 -3.6875 C 17.4375 -2.363281 16.398438 -1.335938 15.140625 -0.609375 C 13.890625 0.109375 12.472656 0.46875 10.890625 0.46875 Z M 12.109375 -11 C 13.460938 -11 14.175781 -11.554688 14.25 -12.671875 C 14.25 -13.878906 13.921875 -14.90625 13.265625 -15.75 C 12.609375 -16.601562 11.671875 -17.03125 10.453125 -17.03125 C 9.109375 -17.03125 8 -16.492188 7.125 -15.421875 C 6.25 -14.347656 5.757812 -12.875 5.65625 -11 Z M 12.109375 -11 "/></g></g><g style="fill:#222222;fill-opacity:1;"><g transform="translate(191.810557, 36.130252)"><path style="stroke:none" d="M 6.65625 0.46875 C 5.070312 0.46875 3.789062 0.0195312 2.8125 -0.875 C 1.832031 -1.769531 1.34375 -2.890625 1.34375 -4.234375 C 1.34375 -5.898438 1.894531 -7.144531 3 -7.96875 C 4.113281 -8.800781 5.4375 -9.34375 6.96875 -9.59375 C 8.5 -9.851562 10.476562 -10.046875 12.90625 -10.171875 L 12.90625 -13.296875 C 12.90625 -14.597656 12.582031 -15.582031 11.9375 -16.25 C 11.289062 -16.925781 10.253906 -17.265625 8.828125 -17.265625 C 8.015625 -17.265625 7.300781 -17.015625 6.6875 -16.515625 C 6.082031 -16.015625 5.78125 -15.335938 5.78125 -14.484375 C 5.78125 -14.066406 5.878906 -13.71875 6.078125 -13.4375 C 6.273438 -13.164062 6.484375 -12.9375 6.703125 -12.75 C 6.929688 -12.5625 7.046875 -12.457031 7.046875 -12.4375 C 7.046875 -12.269531 6.878906 -12.0625 6.546875 -11.8125 C 6.222656 -11.5625 5.820312 -11.4375 5.34375 -11.4375 C 4.550781 -11.4375 3.921875 -11.726562 3.453125 -12.3125 C 2.992188 -12.894531 2.765625 -13.582031 2.765625 -14.375 C 2.765625 -15.75 3.378906 -16.765625 4.609375 -17.421875 C 5.835938 -18.078125 7.320312 -18.40625 9.0625 -18.40625 C 11.226562 -18.40625 12.988281 -17.992188 14.34375 -17.171875 C 15.707031 -16.359375 16.390625 -14.84375 16.390625 -12.625 L 16.390625 -3.40625 C 16.421875 -2.851562 16.59375 -2.320312 16.90625 -1.8125 C 17.21875 -1.3125 17.734375 -1.0625 18.453125 -1.0625 C 18.660156 -1.0625 18.8125 -1.019531 18.90625 -0.9375 C 19 -0.863281 19.046875 -0.695312 19.046875 -0.4375 C 19.046875 -0.113281 18.800781 0.113281 18.3125 0.25 C 17.820312 0.394531 17.335938 0.46875 16.859375 0.46875 C 15.859375 0.46875 14.972656 0.179688 14.203125 -0.390625 C 13.441406 -0.972656 13.007812 -1.753906 12.90625 -2.734375 C 12.351562 -1.703125 11.5 -0.910156 10.34375 -0.359375 C 9.195312 0.191406 7.96875 0.46875 6.65625 0.46875 Z M 7.921875 -1.65625 C 8.816406 -1.65625 9.644531 -1.878906 10.40625 -2.328125 C 11.175781 -2.785156 11.785156 -3.398438 12.234375 -4.171875 C 12.679688 -4.953125 12.90625 -5.816406 12.90625 -6.765625 L 12.90625 -9.03125 C 10.132812 -8.8125 8.179688 -8.359375 7.046875 -7.671875 C 5.910156 -6.992188 5.34375 -5.890625 5.34375 -4.359375 C 5.34375 -2.554688 6.203125 -1.65625 7.921875 -1.65625 Z M 7.921875 -1.65625 "/></g></g><g style="fill:#222222;fill-opacity:1;"><g transform="translate(210.497325, 36.130252)"><path style="stroke:none" d="M 8.546875 0.671875 C 7.253906 0.671875 6.144531 0.195312 5.21875 -0.75 C 4.300781 -1.695312 3.84375 -3.054688 3.84375 -4.828125 L 3.84375 -16.46875 L 1.546875 -16.390625 C 1.390625 -16.390625 1.253906 -16.460938 1.140625 -16.609375 C 1.035156 -16.753906 0.984375 -16.921875 0.984375 -17.109375 C 0.984375 -17.335938 1.03125 -17.535156 1.125 -17.703125 C 1.21875 -17.878906 1.359375 -17.984375 1.546875 -18.015625 C 2.472656 -18.203125 3.191406 -18.5 3.703125 -18.90625 C 4.210938 -19.3125 4.585938 -19.757812 4.828125 -20.25 C 5.066406 -20.738281 5.359375 -21.484375 5.703125 -22.484375 C 5.835938 -22.828125 6.128906 -23 6.578125 -23 C 6.753906 -23 6.9375 -22.953125 7.125 -22.859375 C 7.3125 -22.773438 7.40625 -22.640625 7.40625 -22.453125 L 7.125 -17.9375 L 11.765625 -18.21875 L 11.84375 -18.21875 C 12.1875 -18.21875 12.359375 -17.960938 12.359375 -17.453125 C 12.359375 -17.171875 12.3125 -16.898438 12.21875 -16.640625 C 12.125 -16.390625 12.007812 -16.265625 11.875 -16.265625 L 7.4375 -16.390625 L 7.4375 -4.359375 C 7.4375 -3.484375 7.613281 -2.753906 7.96875 -2.171875 C 8.332031 -1.597656 8.921875 -1.3125 9.734375 -1.3125 C 10.554688 -1.3125 11.285156 -1.453125 11.921875 -1.734375 C 12.265625 -1.867188 12.472656 -1.9375 12.546875 -1.9375 C 12.734375 -1.9375 12.878906 -1.863281 12.984375 -1.71875 C 13.085938 -1.570312 13.191406 -1.378906 13.296875 -1.140625 C 13.328125 -1.085938 13.34375 -1.023438 13.34375 -0.953125 C 13.34375 -0.847656 13.265625 -0.726562 13.109375 -0.59375 C 12.335938 -0.09375 11.613281 0.238281 10.9375 0.40625 C 10.269531 0.582031 9.472656 0.671875 8.546875 0.671875 Z M 8.546875 0.671875 "/></g></g><g style="fill:#222222;fill-opacity:1;"><g transform="translate(224.354033, 36.130252)"><path style="stroke:none" d="M 1.546875 0.125 C 1.335938 0.125 1.175781 0.046875 1.0625 -0.109375 C 0.957031 -0.273438 0.90625 -0.460938 0.90625 -0.671875 C 0.9375 -1.015625 1.007812 -1.21875 1.125 -1.28125 C 1.25 -1.351562 1.484375 -1.390625 1.828125 -1.390625 C 2.503906 -1.390625 2.988281 -1.503906 3.28125 -1.734375 C 3.570312 -1.972656 3.742188 -2.25 3.796875 -2.5625 C 3.847656 -2.882812 3.875 -3.390625 3.875 -4.078125 L 3.875 -23.40625 C 3.875 -24.082031 3.851562 -24.578125 3.8125 -24.890625 C 3.78125 -25.210938 3.617188 -25.492188 3.328125 -25.734375 C 3.035156 -25.972656 2.546875 -26.09375 1.859375 -26.09375 C 1.546875 -26.09375 1.304688 -26.140625 1.140625 -26.234375 C 0.984375 -26.328125 0.90625 -26.546875 0.90625 -26.890625 C 0.90625 -27.046875 0.957031 -27.195312 1.0625 -27.34375 C 1.175781 -27.488281 1.335938 -27.570312 1.546875 -27.59375 C 2.867188 -27.78125 3.863281 -27.984375 4.53125 -28.203125 C 5.207031 -28.429688 5.597656 -28.5625 5.703125 -28.59375 C 6.203125 -28.769531 6.546875 -28.859375 6.734375 -28.859375 C 7.234375 -28.859375 7.484375 -28.609375 7.484375 -28.109375 L 7.484375 -15.359375 L 7.5625 -15.359375 C 8.320312 -16.078125 8.941406 -16.625 9.421875 -17 C 9.898438 -17.382812 10.515625 -17.710938 11.265625 -17.984375 C 12.015625 -18.265625 12.90625 -18.40625 13.9375 -18.40625 C 15.726562 -18.40625 17.148438 -17.863281 18.203125 -16.78125 C 19.265625 -15.707031 19.796875 -14.285156 19.796875 -12.515625 L 19.796875 -4.078125 C 19.796875 -3.390625 19.816406 -2.882812 19.859375 -2.5625 C 19.898438 -2.25 20.0625 -1.972656 20.34375 -1.734375 C 20.632812 -1.503906 21.125 -1.390625 21.8125 -1.390625 L 22.046875 -1.390625 C 22.285156 -1.390625 22.453125 -1.347656 22.546875 -1.265625 C 22.640625 -1.179688 22.703125 -0.984375 22.734375 -0.671875 C 22.734375 -0.460938 22.675781 -0.273438 22.5625 -0.109375 C 22.457031 0.046875 22.316406 0.125 22.140625 0.125 C 20.578125 0.0390625 19.1875 0 17.96875 0 C 16.726562 0 15.359375 0.0390625 13.859375 0.125 C 13.648438 0.125 13.488281 0.046875 13.375 -0.109375 C 13.269531 -0.273438 13.21875 -0.460938 13.21875 -0.671875 C 13.25 -1.015625 13.320312 -1.21875 13.4375 -1.28125 C 13.5625 -1.351562 13.796875 -1.390625 14.140625 -1.390625 C 14.828125 -1.390625 15.3125 -1.503906 15.59375 -1.734375 C 15.882812 -1.972656 16.050781 -2.242188 16.09375 -2.546875 C 16.132812 -2.859375 16.15625 -3.367188 16.15625 -4.078125 L 16.15625 -12.46875 C 16.15625 -13.6875 15.773438 -14.617188 15.015625 -15.265625 C 14.265625 -15.910156 13.390625 -16.234375 12.390625 -16.234375 C 11.179688 -16.234375 10.132812 -15.925781 9.25 -15.3125 C 8.363281 -14.707031 7.773438 -14.101562 7.484375 -13.5 L 7.484375 -4.078125 C 7.484375 -3.390625 7.503906 -2.882812 7.546875 -2.5625 C 7.585938 -2.25 7.75 -1.972656 8.03125 -1.734375 C 8.320312 -1.503906 8.8125 -1.390625 9.5 -1.390625 L 9.734375 -1.390625 C 9.972656 -1.390625 10.140625 -1.347656 10.234375 -1.265625 C 10.328125 -1.179688 10.382812 -0.984375 10.40625 -0.671875 C 10.40625 -0.460938 10.351562 -0.273438 10.25 -0.109375 C 10.144531 0.046875 10 0.125 9.8125 0.125 C 8.28125 0.0390625 6.894531 0 5.65625 0 C 4.46875 0 3.097656 0.0390625 1.546875 0.125 Z M 1.546875 0.125 "/></g></g><g style="fill:#222222;fill-opacity:1;"><g transform="translate(246.524802, 36.130252)"><path style="stroke:none" d="M 10.890625 0.46875 C 8.910156 0.46875 7.226562 0.046875 5.84375 -0.796875 C 4.457031 -1.640625 3.40625 -2.785156 2.6875 -4.234375 C 1.976562 -5.691406 1.625 -7.300781 1.625 -9.0625 C 1.625 -10.625 1.984375 -12.125 2.703125 -13.5625 C 3.429688 -15 4.46875 -16.164062 5.8125 -17.0625 C 7.164062 -17.957031 8.710938 -18.40625 10.453125 -18.40625 C 12.804688 -18.40625 14.613281 -17.804688 15.875 -16.609375 C 17.144531 -15.410156 17.875 -13.796875 18.0625 -11.765625 C 18.0625 -10.890625 17.820312 -10.289062 17.34375 -9.96875 C 16.863281 -9.65625 16.175781 -9.5 15.28125 -9.5 L 5.65625 -9.5 C 5.65625 -7.039062 6.160156 -5.09375 7.171875 -3.65625 C 8.191406 -2.21875 9.773438 -1.5 11.921875 -1.5 C 13.054688 -1.5 14.019531 -1.742188 14.8125 -2.234375 C 15.601562 -2.722656 16.351562 -3.550781 17.0625 -4.71875 C 17.195312 -4.84375 17.328125 -4.90625 17.453125 -4.90625 C 17.640625 -4.90625 17.800781 -4.851562 17.9375 -4.75 C 18.195312 -4.59375 18.328125 -4.351562 18.328125 -4.03125 C 18.328125 -3.875 18.300781 -3.757812 18.25 -3.6875 C 17.4375 -2.363281 16.398438 -1.335938 15.140625 -0.609375 C 13.890625 0.109375 12.472656 0.46875 10.890625 0.46875 Z M 12.109375 -11 C 13.460938 -11 14.175781 -11.554688 14.25 -12.671875 C 14.25 -13.878906 13.921875 -14.90625 13.265625 -15.75 C 12.609375 -16.601562 11.671875 -17.03125 10.453125 -17.03125 C 9.109375 -17.03125 8 -16.492188 7.125 -15.421875 C 6.25 -14.347656 5.757812 -12.875 5.65625 -11 Z M 12.109375 -11 "/></g></g><g style="fill:#222222;fill-opacity:1;"><g transform="translate(265.251173, 36.130252)"><path style="stroke:none" d="M 1.9375 0.125 C 1.75 0.125 1.597656 0.046875 1.484375 -0.109375 C 1.367188 -0.273438 1.3125 -0.460938 1.3125 -0.671875 C 1.332031 -1.015625 1.40625 -1.21875 1.53125 -1.28125 C 1.664062 -1.351562 1.90625 -1.390625 2.25 -1.390625 C 2.9375 -1.390625 3.425781 -1.503906 3.71875 -1.734375 C 4.007812 -1.972656 4.175781 -2.25 4.21875 -2.5625 C 4.257812 -2.882812 4.28125 -3.390625 4.28125 -4.078125 L 4.28125 -13.140625 C 4.28125 -13.828125 4.257812 -14.328125 4.21875 -14.640625 C 4.175781 -14.960938 4.007812 -15.242188 3.71875 -15.484375 C 3.425781 -15.722656 2.9375 -15.84375 2.25 -15.84375 C 1.9375 -15.84375 1.703125 -15.882812 1.546875 -15.96875 C 1.390625 -16.0625 1.3125 -16.28125 1.3125 -16.625 C 1.3125 -16.78125 1.363281 -16.929688 1.46875 -17.078125 C 1.570312 -17.222656 1.726562 -17.3125 1.9375 -17.34375 C 3.65625 -17.601562 5.066406 -17.945312 6.171875 -18.375 C 6.617188 -18.5 6.925781 -18.578125 7.09375 -18.609375 L 7.203125 -18.609375 C 7.628906 -18.609375 7.84375 -18.359375 7.84375 -17.859375 L 7.84375 -15.40625 L 7.953125 -15.40625 C 8.878906 -16.320312 9.816406 -17.050781 10.765625 -17.59375 C 11.710938 -18.132812 12.570312 -18.40625 13.34375 -18.40625 C 14.21875 -18.40625 14.910156 -18.082031 15.421875 -17.4375 C 15.929688 -16.789062 16.1875 -16.046875 16.1875 -15.203125 C 16.1875 -14.460938 15.960938 -13.800781 15.515625 -13.21875 C 15.066406 -12.644531 14.445312 -12.359375 13.65625 -12.359375 C 13.289062 -12.359375 12.96875 -12.4375 12.6875 -12.59375 C 12.414062 -12.75 12.265625 -12.878906 12.234375 -12.984375 C 12.265625 -13.035156 12.394531 -13.195312 12.625 -13.46875 C 12.863281 -13.75 12.984375 -14.078125 12.984375 -14.453125 C 12.984375 -14.929688 12.859375 -15.3125 12.609375 -15.59375 C 12.359375 -15.882812 12.019531 -16.03125 11.59375 -16.03125 C 11.144531 -16.03125 10.578125 -15.8125 9.890625 -15.375 C 9.210938 -14.945312 8.539062 -14.398438 7.875 -13.734375 L 7.875 -4.078125 C 7.875 -3.390625 7.898438 -2.882812 7.953125 -2.5625 C 8.003906 -2.25 8.175781 -1.972656 8.46875 -1.734375 C 8.757812 -1.503906 9.25 -1.390625 9.9375 -1.390625 L 10.171875 -1.390625 C 10.390625 -1.390625 10.550781 -1.347656 10.65625 -1.265625 C 10.757812 -1.179688 10.820312 -0.984375 10.84375 -0.671875 C 10.84375 -0.460938 10.789062 -0.273438 10.6875 -0.109375 C 10.582031 0.046875 10.425781 0.125 10.21875 0.125 C 8.6875 0.0390625 7.300781 0 6.0625 0 C 4.875 0 3.5 0.0390625 1.9375 0.125 Z M 1.9375 0.125 "/></g></g></g></svg>