<?xml version="1.0" encoding="UTF-8"?>
<svg id="Layer_2" data-name="Layer 2" xmlns="http://www.w3.org/2000/svg" viewBox="0 0 1291.14 1285.33">
  <defs>
    <style>
      .cls-1 {
        fill: #14b2e7;
      }

      .cls-2 {
        fill: #f2ba09;
      }
    </style>
  </defs>
  <g id="Layer_1-2" data-name="Layer 1">
    <path class="cls-1" d="M1167.64,1028.78c-2.11,2.11-4.51,3.95-7.12,5.45-7.89,4.56-17.1,5.77-25.93,3.4-8.83-2.36-16.19-8.01-20.75-15.91l-114.75-198.76-232.64-62.34,62.34,232.64,198.76,114.75c13.37,7.72,19.92,23.52,15.93,38.42-.77,2.88-1.92,5.66-3.42,8.26-1.5,2.59-3.32,4.97-5.42,7.07-10.92,10.92-27.88,13.15-41.26,5.43l-139.57-80.58,41.71,155.67c1.55,5.79,1.56,11.9.01,17.67-1.55,5.78-4.61,11.08-8.86,15.33-4.25,4.25-9.54,7.31-15.31,8.85-18.2,4.88-36.97-5.96-41.85-24.16l-41.71-155.67-80.58,139.57c-1.5,2.59-3.32,4.97-5.42,7.07-10.92,10.92-27.88,13.15-41.26,5.43-13.37-7.72-19.92-23.52-15.93-38.42.77-2.88,1.92-5.65,3.42-8.25l114.75-198.76-62.34-232.64-170.3,170.3v229.5c0,3-.39,5.98-1.16,8.86-1.55,5.77-4.6,11.05-8.83,15.28-6.47,6.47-15.06,10.03-24.18,10.03-18.84,0-34.17-15.33-34.17-34.17v-161.16s-155.82,155.82-155.82,155.82c-6.45,6.45-15.04,10.01-24.16,10.01-9.13,0-17.71-3.55-24.16-10.01-8.61-8.61-11.99-21.27-8.84-33.03,1.54-5.76,4.6-11.05,8.84-15.29l866.72-866.72c6.46-6.45,15.04-10.01,24.16-10.01,9.13,0,17.71,3.55,24.16,10.01,8.61,8.61,11.99,21.26,8.84,33.03-1.55,5.77-4.6,11.05-8.84,15.29l-149.9,149.9h161.16c9.13,0,17.71,3.55,24.16,10.01,6.45,6.46,10.01,15.04,10.01,24.16,0,3-.39,5.98-1.16,8.86-1.54,5.77-4.6,11.05-8.82,15.28-6.47,6.47-15.06,10.03-24.18,10.03h-229.51s-170.3,170.31-170.3,170.31l232.64,62.34,198.76-114.75c16.32-9.42,37.26-3.81,46.68,12.51,4.56,7.9,5.78,17.11,3.41,25.93-1.55,5.8-4.6,11.09-8.8,15.29-2.11,2.11-4.51,3.95-7.12,5.45l-139.57,80.58,155.67,41.71c18.2,4.88,29.04,23.65,24.16,41.85-1.55,5.78-4.6,11.06-8.81,15.28-8.63,8.63-21.29,12.03-33.04,8.88l-155.67-41.71,80.58,139.57c4.56,7.9,5.78,17.11,3.41,25.93-1.55,5.8-4.6,11.09-8.8,15.29Z"/>
    <g>
      <path class="cls-2" d="M877.03,417.06c-127.01-127.01-332.92-127.01-459.93,0-127.01,127.01-127.01,332.92,0,459.93l459.93-459.93Z"/>
      <path class="cls-2" d="M494.86,279.64c18.37-7.61,27.13-28.74,19.52-47.11L427.29,22.27c-7.62-18.37-28.76-27.13-47.13-19.52-18.37,7.61-27.13,28.75-19.52,47.13l87.1,210.27c7.61,18.36,28.74,27.12,47.12,19.5Z"/>
      <path class="cls-2" d="M232.54,514.39c18.36,7.6,39.51-1.16,47.12-19.53,7.61-18.37-1.15-39.51-19.5-47.12l-210.28-87.1c-18.37-7.61-39.52,1.15-47.13,19.52-7.61,18.37,1.15,39.52,19.52,47.13l210.27,87.1Z"/>
      <path class="cls-2" d="M49.87,933.43l210.28-87.09c18.36-7.61,27.11-28.75,19.5-47.13-7.61-18.37-28.75-27.13-47.11-19.52l-210.28,87.1c-18.36,7.61-27.12,28.75-19.51,47.12,7.61,18.37,28.75,27.13,47.12,19.52Z"/>
      <path class="cls-2" d="M799.21,279.65c18.38,7.61,39.51-1.14,47.12-19.52l87.1-210.26c7.61-18.38-1.14-39.51-19.52-47.12-18.37-7.62-39.5,1.14-47.12,19.51l-87.1,210.27c-7.61,18.36,1.14,39.5,19.51,47.12Z"/>
      <path class="cls-2" d="M646.94,249.37c19.89,0,36.07-16.17,36.07-36.06v-113.8c0-19.89-16.18-36.06-36.07-36.06-19.89,0-36.06,16.17-36.06,36.06v113.8c0,19.89,16.18,36.06,36.06,36.06Z"/>
      <path class="cls-2" d="M365.76,365.88c14.06-14.07,14.07-36.94,0-51l-80.47-80.47c-14.06-14.07-36.94-14.06-51,0-14.07,14.06-14.07,36.94,0,51l80.47,80.47c14.06,14.06,36.94,14.05,51,0Z"/>
      <path class="cls-2" d="M213.26,683.15c19.89,0,36.06-16.19,36.06-36.06,0-19.89-16.17-36.07-36.06-36.07h-113.8c-19.89,0-36.06,16.18-36.06,36.07,0,19.89,16.17,36.07,36.06,36.06h113.8Z"/>
      <path class="cls-2" d="M910,296.65c-14.06,14.07-14.06,36.94,0,51,14.06,14.07,36.94,14.06,51,0l80.47-80.47c14.06-14.06,14.06-36.94,0-51-14.07-14.06-36.94-14.06-51,0l-80.47,80.47Z"/>
      <path class="cls-2" d="M296.69,910.11l-80.46,80.47c-14.08,14.06-14.07,36.94,0,51,14.06,14.07,36.94,14.07,51,0l80.47-80.46c14.06-14.06,14.05-36.95,0-51-14.07-14.06-36.94-14.07-51,0Z"/>
    </g>
  </g>
</svg>