<svg
    fill="none"
    xmlns="http://www.w3.org/2000/svg"
    viewBox="0 0 21 20"
>
    <path
        fillRule="evenodd"
        clipRule="evenodd"
        d="M8.757 3.54c2.284 0 4.142 1.866 4.142 4.16 0 2.293-1.858 4.16-4.142 4.16-2.283 0-4.141-1.867-4.141-4.16 0-2.294 1.858-4.16 4.141-4.16Zm4.467 8.18a6.016 6.016 0 0 0 1.54-4.02c0-3.327-2.694-6.034-6.007-6.034-3.312 0-6.007 2.707-6.007 6.034s2.695 6.033 6.007 6.033a5.943 5.943 0 0 0 3.023-.828l4.327 5.1a.93.93 0 0 0 1.316.104.94.94 0 0 0 .104-1.32l-4.303-5.07Z"
        fill="currentColor"
    />
</svg>